<?xml version="1.0" encoding="utf-8"?>
<!-- Generator: Adobe Illustrator 24.0.1, SVG Export Plug-In . SVG Version: 6.00 Build 0)  -->
<svg version="1.1" id="Icon_x5F_contour" xmlns="http://www.w3.org/2000/svg" xmlns:xlink="http://www.w3.org/1999/xlink" x="0px"
	 y="0px" viewBox="0 0 192 192" style="enable-background:new 0 0 192 192;" xml:space="preserve">
<path d="M129.17139,57.17139l5.65723,5.65723L116,81.65674l-10.82861-10.82812l5.65723-5.65723L116,70.34326L129.17139,57.17139z
	 M116,98.34326l-5.17139-5.17188l-5.65723,5.65723L116,109.65674l18.82861-18.82812l-5.65723-5.65723L116,98.34326z M116,126.34326
	l-5.17139-5.17188l-5.65723,5.65723L116,137.65674l18.82861-18.82812l-5.65723-5.65723L116,126.34326z M152,24v152H40V24h28v-8h56v8
	H152z M76,32h40v-8H76V32z M144,32h-20v8H68v-8H48v136h96V32z M56,76h40v-8H56V76z M56,104h40v-8H56V104z M56,132h40v-8H56V132z"/>
<g>
</g>
<g>
</g>
<g>
</g>
<g>
</g>
<g>
</g>
<g>
</g>
<g>
</g>
<g>
</g>
<g>
</g>
<g>
</g>
<g>
</g>
<g>
</g>
<g>
</g>
<g>
</g>
<g>
</g>
</svg>
