<?xml version="1.0" encoding="UTF-8"?>
<svg xmlns="http://www.w3.org/2000/svg" viewBox="0 0 192 192"><path d="M106.703 160.07l-1.91 7.39c-5.86.72-11.73.72-17.6 0l-4.45-16.99-2.19-.63c-4.05-1.16-7.99-2.8-11.7-4.86l-1.99-1.1-15.16 8.86c-4.64-3.63-8.82-7.8-12.45-12.45l8.87-15.15-1.1-1.99a56.07 56.07 0 0 1-4.88-11.75l-.63-2.2-16.97-4.4c-.36-2.93-.54-5.88-.54-8.8 0-1.33.04-2.67.12-4.01h-8.02a80.236 80.236 0 0 0 .9 16.64l.41 2.58 17.72 4.6c1.02 3.15 2.3 6.23 3.81 9.19l-9.26 15.81 1.54 2.11a80.06 80.06 0 0 0 17.86 17.86l2.11 1.53 15.81-9.25c2.95 1.5 6.01 2.77 9.15 3.8l4.64 17.73 2.58.41c4.19.66 8.44 1 12.63 1s8.44-.34 12.62-1l2.59-.41 3.76-14.52h-8.27zm68.3-76.7l-.42-2.58-17.71-4.6a64.06 64.06 0 0 0-3.82-9.19l9.26-15.81-1.53-2.11c-4.99-6.87-11-12.88-17.86-17.86l-2.12-1.53-15.81 9.25c-2.95-1.5-6.01-2.77-9.14-3.8l-4.65-17.73-2.58-.41a80.393 80.393 0 0 0-25.25 0l-2.59.41-4.59 17.72c-1.71.56-3.41 1.19-5.07 1.9a27.62 27.62 0 0 1 .84 8.39c2.79-1.33 5.68-2.43 8.64-3.27l2.2-.63 4.4-16.98c5.86-.72 11.73-.72 17.6 0l4.45 16.99 2.19.63c4.06 1.16 7.99 2.79 11.7 4.86l1.99 1.1 15.16-8.86c4.65 3.63 8.82 7.8 12.45 12.45l-8.87 15.15 1.11 1.99a55.73 55.73 0 0 1 4.87 11.75l.63 2.2 16.98 4.4c.35 2.93.54 5.88.54 8.8 0 2.92-.19 5.87-.54 8.8l-4.14 1.08c.45 1.97.68 4.02.68 6.12 0 .67-.02 1.34-.08 2l10.67-2.79.41-2.58c.66-4.19 1-8.44 1-12.63s-.34-8.44-1-12.63zm-70.65 11.03c-1.43-.85-3.21-1.4-6.2-2.03v-7.76c1.69.12 3.16.84 4.64 2.78l5.19-2.78c-2.45-3.17-5.78-4.69-9.83-4.9V76h-3.17v3.71c-2.32.17-3.75.55-5.19 1.27-2.95 1.52-4.6 4.26-4.6 7.68 0 3.04 1.27 5.44 3.67 6.92 1.52.97 3.08 1.52 6.12 2.15v7.93c-2.82-.42-4.51-1.81-5.78-4.64l-5.36 2.45c1.69 4.18 5.74 6.83 11.14 7.26V116h3.17v-5.32c2.82-.29 4.55-.84 6.12-1.81 2.57-1.69 3.88-4.18 3.88-7.43 0-3.33-1.23-5.57-3.8-7.04zm-9.37-2.66c-2.95-.72-3.96-1.69-3.96-3.59 0-2.07 1.22-3.16 3.96-3.54v7.13zm3.17 13.96v-7.34c2.99.81 4.01 1.73 4.01 3.67 0 2.03-1.31 3.25-4.01 3.67zm50.828 21.502l.002-.002c2.06-1.76 3.76-3.94 4.98-6.39a19.88 19.88 0 0 0 2.04-8.81c0-1.4-.14-2.77-.42-4.09-1.89-9.07-9.96-15.91-19.58-15.91-11.03 0-20 8.97-20 20 0 3.16.73 6.15 2.04 8.81 1.21 2.45 2.91 4.63 4.97 6.39l.005.003C114.099 131.892 108 141.244 108 152h8c0-11.028 8.972-20 20-20s20 8.972 20 20h8c0-10.757-6.1-20.11-15.02-24.798zM136.003 100c6.61 0 12 5.38 12 12 0 2.02-.5 3.93-1.39 5.6-2.01 3.8-6.02 6.4-10.61 6.4-4.6 0-8.6-2.6-10.61-6.4a11.88 11.88 0 0 1-1.39-5.6c0-6.62 5.38-12 12-12zm-72.43-36c-1.94-1.9-4.15-3.53-6.58-4.8 2.06-1.76 3.76-3.94 4.97-6.39a19.938 19.938 0 0 0 2.04-8.81c0-2.74-.55-5.35-1.55-7.72C59.433 29.07 52.303 24 44.003 24c-11.03 0-20 8.97-20 20 0 3.16.73 6.15 2.04 8.81 1.21 2.45 2.91 4.63 4.97 6.39-2.43 1.27-4.64 2.9-6.58 4.8-5.2 5.08-8.43 12.17-8.43 20h8c0-1.76.23-3.48.66-5.11 1.05-3.98 3.31-7.48 6.35-10.09 1.96-1.68 4.25-2.99 6.76-3.8 1.96-.65 4.05-1 6.23-1 .86 0 1.71.05 2.54.16v.01c3.96.49 7.56 2.16 10.45 4.63 4.29 3.67 7.01 9.12 7.01 15.2h8c0-7.83-3.23-14.92-8.43-20zm-19.57-32c1.18 0 2.31.17 3.39.49 4.23 1.24 7.5 4.77 8.38 9.15.15.77.23 1.55.23 2.36 0 2.02-.5 3.93-1.39 5.6-2.01 3.8-6.01 6.4-10.61 6.4-.81 0-1.6-.08-2.37-.23-3.58-.72-6.58-3.04-8.24-6.17-.38-.7-.68-1.44-.9-2.21-.32-1.08-.49-2.21-.49-3.39 0-6.62 5.38-12 12-12z" style="fill: #9e2896;"/></svg>
