<?xml version="1.0" encoding="utf-8"?>
<!-- Generator: Adobe Illustrator 24.0.1, SVG Export Plug-In . SVG Version: 6.00 Build 0)  -->
<svg version="1.1" id="Icon_x5F_contour" xmlns="http://www.w3.org/2000/svg" xmlns:xlink="http://www.w3.org/1999/xlink" x="0px"
	 y="0px" viewBox="0 0 192 192" style="enable-background:new 0 0 192 192;" xml:space="preserve">
<path d="M134.26172,104.33679C147.10083,98.23157,156,85.13715,156,70c0-20.95312-17.04688-38-38-38S80,49.04688,80,70
	c0,15.13715,8.89917,28.23157,21.73828,34.33679C77.65021,111.38629,60,133.66382,60,160h8c0-27.57031,22.42969-50,50-50
	s50,22.42969,50,50h8C176,133.66382,158.34979,111.38629,134.26172,104.33679z M88,70c0-16.54199,13.45801-30,30-30
	s30,13.45801,30,30s-13.45801,30-30,30S88,86.54199,88,70z M65.82507,119.65088c1.65833-2.13947,3.43591-4.18146,5.33948-6.10065
	c-2.71368-1.71106-5.60925-3.06036-8.64185-3.98553C70.49579,105.65839,76,97.46118,76,88c0-13.23389-10.76611-24-24-24
	S28,74.76611,28,88c0,9.46509,5.50867,17.66534,13.48718,21.56976C26.74976,114.07861,16,127.80573,16,144h8
	c0-15.43945,12.56055-28,28-28C56.89093,116,61.62494,117.25952,65.82507,119.65088z M36,88c0-8.82227,7.17773-16,16-16
	s16,7.17773,16,16s-7.17773,16-16,16S36,96.82227,36,88z"/>
<g>
</g>
<g>
</g>
<g>
</g>
<g>
</g>
<g>
</g>
<g>
</g>
<g>
</g>
<g>
</g>
<g>
</g>
<g>
</g>
<g>
</g>
<g>
</g>
<g>
</g>
<g>
</g>
<g>
</g>
</svg>
