<?xml version="1.0" encoding="UTF-8"?>
<!-- Generator: Adobe Illustrator 24.0.1, SVG Export Plug-In . SVG Version: 6.00 Build 0)  -->
<svg xmlns="http://www.w3.org/2000/svg" xmlns:xlink="http://www.w3.org/1999/xlink" version="1.1" id="Icon_x5F_contour" x="0px" y="0px" viewBox="0 0 192 192" style="enable-background:new 0 0 192 192;" xml:space="preserve">
<path id="Icons_2_" d="M139.99951,160c-0.56152,0-1.12549-0.11816-1.65479-0.3584L96,140.39404L53.65527,159.6416  c-1.34424,0.61084-2.91748,0.43262-4.09082-0.46875c-1.17236-0.8999-1.75293-2.37256-1.51025-3.83057l7.66162-45.96924  L21.17139,74.82861c-1.05908-1.05957-1.43799-2.62256-0.98047-4.04932c0.45703-1.42676,1.67334-2.47852,3.15137-2.7251  l46.0791-7.67969l23.0708-42.29004C93.19287,16.79932,94.53955,16,96.00342,16c0,0,0,0,0.00049,0  c1.46338,0,2.81055,0.7998,3.51123,2.08496l23.06396,42.28955l46.07861,7.67969c1.47803,0.24658,2.69434,1.29834,3.15137,2.7251  c0.45752,1.42676,0.07861,2.98975-0.98047,4.04932l-34.54443,34.54443l7.66162,45.96924  c0.24268,1.45801-0.33789,2.93066-1.51025,3.83057C141.72412,159.71875,140.86523,160,139.99951,160z M96,132  c0.56445,0,1.12939,0.11963,1.65527,0.3584l37.16504,16.89307l-6.76611-40.59375c-0.21191-1.27441,0.2041-2.57275,1.11719-3.48633  l30.50391-30.50342l-40.33301-6.72217c-1.21289-0.20215-2.26514-0.95117-2.854-2.03076L96.00293,28.35352l-20.4917,37.56201  c-0.58838,1.07959-1.64111,1.82812-2.85352,2.03027l-40.33301,6.72217l30.50391,30.50342  c0.91309,0.91357,1.3291,2.21191,1.11719,3.48633l-6.76611,40.59375l37.16504-16.89307C94.87061,132.11963,95.43555,132,96,132z" style="fill: #18837e;"/>
<g>
</g>
<g>
</g>
<g>
</g>
<g>
</g>
<g>
</g>
<g>
</g>
<g>
</g>
<g>
</g>
<g>
</g>
<g>
</g>
<g>
</g>
<g>
</g>
<g>
</g>
<g>
</g>
<g>
</g>
</svg>
