<?xml version="1.0" encoding="UTF-8"?>
<!-- Generator: Adobe Illustrator 24.0.1, SVG Export Plug-In . SVG Version: 6.00 Build 0)  -->
<svg xmlns="http://www.w3.org/2000/svg" xmlns:xlink="http://www.w3.org/1999/xlink" version="1.1" id="Icon_x5F_contour" x="0px" y="0px" viewBox="0 0 192 192" style="enable-background:new 0 0 192 192;" xml:space="preserve">
<path d="M60,84.95262h9.25159c2.17705-10.23129,4.78941-15.67366,10.01363-21.11555C84.48994,58.61236,91.02011,56,98.74812,56  c7.40128,0,13.38803,2.50378,17.63256,7.18362c3.04767,3.3744,4.78941,6.74831,7.18362,13.71427l-7.94518,2.17705  c-4.02737-11.53722-8.38097-15.56459-17.19725-15.56459c-7.18362,0-12.62599,3.15625-16.21805,9.46925  c-1.85032,3.26533-2.82953,6.20393-3.9183,11.97302h24.16322v6.8569H77.63257c-0.10859,1.30593-0.10859,2.3947-0.10859,4.3536  c0,2.28564,0,3.48299,0.10859,4.57175h24.81618v6.85689H78.39461c2.9386,14.47631,9.14252,20.8979,20.24492,20.8979  c9.36018,0,14.36724-4.57127,18.17646-16.43522l7.94566,2.72095c-2.39471,7.18362-4.35361,10.6666-8.05424,14.36724  C112.02707,133.6053,105.82315,136,98.63953,136c-8.38097,0-15.23835-2.93909-20.46258-8.81628  c-4.68034-5.22472-6.85738-10.01363-8.92535-19.59196H60v-6.85689h8.49004c-0.10907-1.08877-0.21815-2.50378-0.21815-4.3541  l0.10908-4.57126H60V84.95262z M96,176c-44.1123,0-80-35.8877-80-80s35.8877-80,80-80s80,35.8877,80,80S140.1123,176,96,176z M96,24  c-39.70117,0-72,32.29883-72,72s32.29883,72,72,72s72-32.29883,72-72S135.70117,24,96,24z" style="fill: #007bc0;"/>
<g>
</g>
<g>
</g>
<g>
</g>
<g>
</g>
<g>
</g>
<g>
</g>
<g>
</g>
<g>
</g>
<g>
</g>
<g>
</g>
<g>
</g>
<g>
</g>
<g>
</g>
<g>
</g>
<g>
</g>
</svg>
