<?xml version="1.0" encoding="utf-8"?>
<!-- Generator: Adobe Illustrator 23.0.1, SVG Export Plug-In . SVG Version: 6.00 Build 0)  -->
<svg version="1.1" id="Icon_x5F_contour" xmlns="http://www.w3.org/2000/svg" xmlns:xlink="http://www.w3.org/1999/xlink" x="0px"
	 y="0px" viewBox="0 0 192 192" enable-background="new 0 0 192 192" xml:space="preserve">
<path d="M52,176c-19.9,0-36-16.1-36-36s16.1-36,36-36s36,16.1,36,36S71.9,176,52,176z M52,112c-15.4,0-28,12.6-28,28s12.6,28,28,28
	s28-12.6,28-28S67.4,112,52,112z M140,16c-19.9,0-36,16.1-36,36c0,0.2,0,0.5,0,0.7c2.8,0.5,5.5,1.3,8.2,2.3c-0.1-1-0.2-2-0.2-3.1
	c0-15.4,12.6-28,28-28s28,12.6,28,28s-12.6,28-28,28c-1,0-2.1-0.1-3.1-0.2c1,2.6,1.8,5.3,2.3,8.2c0.2,0,0.5,0,0.7,0
	c19.9,0,36-16.1,36-36S159.9,16,140,16z M96,60c-19.9,0-36,16.1-36,36c0,0.2,0,0.5,0,0.7c2.8,0.5,5.5,1.3,8.2,2.3
	c-0.1-1-0.2-2-0.2-3.1c0-15.4,12.6-28,28-28s28,12.6,28,28s-12.6,28-28,28c-1,0-2.1-0.1-3.1-0.2c1,2.6,1.8,5.3,2.3,8.2
	c0.2,0,0.5,0,0.7,0c19.9,0,36-16.1,36-36S115.9,60,96,60z M110.8,90.8l-5.7-5.7L92,98.3l-5.2-5.2l-5.7,5.7L92,109.7L110.8,90.8z
	 M66.8,134.8l-5.7-5.7L48,142.3l-5.2-5.2l-5.7,5.7L48,153.7L66.8,134.8z M154.8,46.8l-5.7-5.7L136,54.3l-5.2-5.2l-5.7,5.7L136,65.7
	L154.8,46.8z"/>
</svg>
