<?xml version="1.0" encoding="UTF-8"?>
<svg xmlns="http://www.w3.org/2000/svg" version="1.1" viewBox="0 0 192 192">
  <!-- Generator: Adobe Illustrator 28.7.1, SVG Export Plug-In . SVG Version: 1.2.0 Build 142)  -->
  <g>
    <g id="Icon_x5F_contour">
      <path d="M139.795,84c-6.617,0-12,5.383-12,12s5.383,12,12,12,12-5.383,12-12-5.383-12-12-12ZM139.795,100c-2.206,0-4-1.794-4-4s1.794-4,4-4,4,1.794,4,4-1.794,4-4,4ZM175.182,89.398l-.501-2.706-8.086-1.49c-.07-.172-.141-.345-.214-.516l4.664-6.773-1.557-2.268c-2.522-3.673-5.664-6.815-9.337-9.337l-2.268-1.557-6.772,4.665c-.171-.073-.344-.145-.516-.214l-1.49-8.085-2.705-.502c-4.395-.816-8.811-.816-13.205,0l-2.705.502-1.49,8.085c-.172.07-.344.141-.516.214l-6.772-4.665-2.268,1.557c-3.672,2.521-6.814,5.663-9.338,9.337l-1.558,2.268,4.665,6.773c-.073.171-.145.344-.214.516l-8.085,1.49-.502,2.705c-.408,2.197-.615,4.418-.615,6.603s.207,4.405.615,6.603l.502,2.705,8.085,1.49c.07.172.141.345.214.516l-4.665,6.771,1.557,2.268c2.521,3.673,5.663,6.814,9.338,9.338l2.268,1.558,6.77-4.663c.172.074.346.146.52.216l1.489,8.082,2.705.502c2.197.408,4.418.615,6.603.615s4.405-.207,6.603-.615l2.705-.502,1.49-8.085c.172-.07.345-.141.516-.214l6.773,4.665,2.268-1.558c3.674-2.524,6.815-5.666,9.337-9.338l1.557-2.268-4.664-6.772c.073-.171.144-.343.214-.516l8.086-1.49.501-2.706c.407-2.198.614-4.419.614-6.602s-.207-4.404-.614-6.602ZM167.684,98.462l-7.2,1.327-.71,2.325c-.386,1.265-.901,2.506-1.529,3.687l-1.143,2.146,4.155,6.033c-1.057,1.262-2.22,2.425-3.482,3.482l-6.034-4.156-2.146,1.144c-1.18.628-2.42,1.143-3.686,1.529l-2.325.71-1.327,7.2c-1.65.148-3.273.148-4.924,0l-1.328-7.206-2.331-.707c-1.267-.384-2.47-.884-3.678-1.527l-2.146-1.144-6.033,4.156c-1.262-1.057-2.425-2.22-3.482-3.481l4.156-6.034-1.144-2.146c-.628-1.18-1.143-2.42-1.529-3.686l-.71-2.325-7.2-1.327c-.074-.825-.111-1.647-.111-2.462s.037-1.637.111-2.462l7.2-1.327.71-2.325c.386-1.266.901-2.506,1.529-3.686l1.144-2.146-4.156-6.034c1.057-1.262,2.22-2.425,3.482-3.482l6.034,4.156,2.146-1.144c1.179-.628,2.418-1.143,3.685-1.53l2.324-.71,1.327-7.2c1.65-.148,3.273-.148,4.924,0l1.327,7.2,2.325.71c1.266.386,2.506.901,3.686,1.529l2.146,1.144,6.034-4.156c1.262,1.057,2.425,2.22,3.482,3.481l-4.155,6.033,1.143,2.146c.628,1.181,1.143,2.421,1.529,3.687l.71,2.325,7.2,1.327c.074.825.111,1.647.111,2.462s-.037,1.637-.111,2.462ZM42.499,110.107c-4.07-3.974-6.499-9.367-6.499-14.426,0-10.852,8.972-19.681,20-19.681s20,8.829,20,19.681c0,5.174-2.256,10.344-6.189,14.186-.578.563-1.543,1.506-1.644,1.794-.167.478-.167,2.103-.167,3.824v4.515h-8v-4.515c0-6.129.312-7.525,4.221-11.342,2.366-2.311,3.778-5.474,3.778-8.462,0-6.441-5.383-11.681-12-11.681s-12,5.24-12,11.681c0,2.861,1.604,6.277,4.088,8.703,3.76,3.672,3.932,5.354,3.909,10.115l-.004,5.501h-8l.004-5.54c.006-1.184.012-2.526-.095-2.821-.061-.132-.354-.507-1.403-1.532ZM96,100h-12v-8h12v8ZM52,68.002v-12.002h8v12.002h-8ZM16.074,92h11.926v8h-11.926v-8ZM64,46.273h-25.734v-26.274h8v13.218c14.04-11.152,31.381-17.218,49.739-17.218,21.465,0,41.555,8.269,56.569,23.282l-5.657,5.657c-13.503-13.503-31.584-20.939-50.912-20.939-15.86,0-30.876,5.016-43.216,14.273h11.21v8ZM128,146h25.733v26h-8v-13.139c-14.073,11.103-31.43,17.138-49.791,17.138-21.462,0-41.533-8.223-56.515-23.152l5.647-5.667c13.471,13.426,31.536,20.819,50.867,20.819,15.755,0,30.692-4.914,43.007-14h-10.949v-8ZM48.136,128.001h16v8h-16v-8ZM36.64,74.588l-5.657,5.657-8.487-8.487,5.657-5.657,8.487,8.487ZM89.802,71.758l-8.487,8.487-5.657-5.657,8.487-8.487,5.657,5.657Z"/>
    </g>
  </g>
</svg>