<?xml version="1.0" encoding="UTF-8"?>
<svg id="Layer_1" data-name="Layer 1" xmlns="http://www.w3.org/2000/svg" viewBox="0 0 1920 1080">
  <g>
    <g>
      <path d="M1026.78,811.11c59.14-3.06,156.86-17.43,186.3-85.03,42-96.45,24.27-157.18-6.98-191.35-31.25-34.16-94.3-33.88-94.3-33.88h-108.87l-31.75,54.67h133.95s65.01,2.97,66.2,67.8c1.13,61.56-25.86,122.7-113.11,132.94l-31.45,54.85Z" style="fill: #02894b; stroke-width: 0px;"/>
      <polygon points="980.48 811.11 825.26 811.11 856.75 756.44 1011.87 756.44 980.48 811.11" style="fill: #02894b; stroke-width: 0px;"/>
      <polygon points="1009.49 622.76 933.15 622.76 901.82 677.43 977.79 677.43 1009.49 622.76" style="fill: #02894b; stroke-width: 0px;"/>
    </g>
    <path d="M969.62,498.94h-215.42s-9.16.28-23.13,2.09c-60.2,7.83-113.62,42.68-145.66,94.24,0,0-59.39,95.6,59.86,97.71h102.08s50.9-4.59,29.56,29.35c-13.25,21.06-38.38,33.71-71.7,33.71h-167.93c-11.49,0-18.43-12.71-12.22-22.37h0s-23.55-3.49-23.55-3.49l-16.12,25.86-34.91,55.07h190.93c32.24,0,84.13.8,116.71-3.56,8.46-1.13,24.57-8.13,32.1-10.91,35.15-12.96,67.78-69.61,78.22-120.19,12.62-61.12-68.07-54.48-68.07-54.48l-119.72-.15c-35.36-.04-9.23-38.8-9.23-38.8,12.65-18.39,33.53-29.37,55.85-29.37h156.25c11.49,0,18.43,12.71,12.22,22.37l23.55,3.49,50.35-80.58Z" style="fill: #077cc1; stroke-width: 0px;"/>
    <path d="M551.74,540.8l26.75-42.24h-240.09l-26.75,42.24h-57.74l-145.37,229.5h57.74l-26.75,42.24h240.09l26.75-42.24h49.93l145.37-229.5h-49.93ZM238.71,747.11l126.23-199.28c2.77-4.37,7.59-7.02,12.76-7.02h81.04c11.91,0,19.14,13.13,12.76,23.2l-126.23,199.28c-2.77,4.37-7.59,7.02-12.76,7.02h-81.04c-11.91,0-19.14-13.13-12.76-23.2Z" style="fill: #9d2f92; stroke-width: 0px;"/>
  </g>
  <g>
    <polygon points="1277.75 575.78 1336.32 505.39 1467.65 505.39 1406.15 577.91 1277.75 575.78" style="fill: #077cc1; stroke-width: 0px;"/>
    <path d="M1436.54,798.16c-10.75-10.51-16.67-24.89-16.67-40.49,0-2.89.18-5.71.53-8.46-19.52,3.99-42.71,2.61-61.81-10.79-24.15-16.95-36.88-41-36.24-63.94l-51.78,60.81c21.82,44.34,69.48,75.09,124.76,75.09,16.34,0,32.01-2.69,46.55-7.62-1.87-1.41-3.65-2.95-5.34-4.6ZM1425.94,554.58l-57.41,65.32c20.92-4.64,45.57.17,66.71,15.01,3.51,2.46,6.69,5.21,9.55,8.17,2.29-5.78,5.58-11.11,9.73-15.62,6.79-7.38,19.11-16.19,39.24-16.19,7.31,0,14.08,1.39,20.06,3.93-18.92-30.25-50.51-52.61-87.88-60.62Z" style="fill: #077cc1; stroke-width: 0px;"/>
    <path d="M1555.11,807.32c-5.3-5.3-10.32-10.6-17.57-18.41-16.18,15.06-34.3,21.47-54.94,21.47-36.54,0-57.73-24.54-57.73-52.71,0-25.66,15.34-43.23,36.81-54.94v-.84c-9.76-12.27-15.62-25.94-15.62-39.32,0-22.87,16.45-46.3,47.69-46.3,23.43,0,41.55,15.62,41.55,39.88,0,19.8-11.43,35.42-41.28,50.2v.84c15.9,18.41,33.75,39.05,45.74,52.43,8.65-13.11,14.5-31.24,18.13-54.94h22.31c-5.02,29.57-13.11,52.99-27.05,69.45,10.04,10.6,19.8,21.2,30.96,33.19h-29.01ZM1525.55,774.97c-11.16-12.27-32.07-35.14-52.99-59.13-10.04,6.41-24.26,18.41-24.26,38.21,0,21.48,15.9,37.93,38.49,37.93,16.17,0,29.84-7.25,38.76-17.01ZM1468.37,660.34c0,13.39,6.14,23.7,14.22,33.75,18.96-10.88,31.23-20.92,31.23-36.82,0-11.43-6.41-24.26-21.75-24.26s-23.71,12.83-23.71,27.33Z" style="fill: #000; stroke-width: 0px;"/>
    <path d="M1563.56,699.68h-9.95l-.65,4.25c-3.01,19.71-7.54,35.13-13.77,46.86l-15.05-16.67-.08.09c-3.09-3.54-6.3-7.24-9.59-11.05-.44-4.18-.65-8.49-.65-12.92,0-3.28.11-6.55.32-9.79,1.46-1.02,2.85-2.04,4.18-3.08.36-.28.71-.56,1.05-.83.29-.23.57-.46.84-.68,1.05-.87,2.05-1.75,3.01-2.63.39-.36.77-.72,1.15-1.08.14-.13.27-.26.4-.39.35-.34.7-.68,1.03-1.03,1.17-1.18,2.25-2.37,3.26-3.59.16-.18.31-.36.45-.54.55-.67,1.08-1.35,1.58-2.04.35-.46.68-.93,1-1.4.36-.52.71-1.04,1.04-1.56,0-.02.02-.04.04-.07.31-.5.62-.99.9-1.49.13-.21.24-.41.35-.62.17-.29.33-.58.49-.87.11-.2.22-.41.32-.62.21-.4.41-.81.6-1.22.06-.11.12-.23.16-.34.25-.52.49-1.05.71-1.58.23-.53.44-1.06.64-1.6.02-.05.03-.1.05-.14.21-.54.4-1.1.58-1.65.04-.12.08-.23.11-.34.17-.52.32-1.04.47-1.57,0,0,0,0,0-.02.17-.6.33-1.2.47-1.81.1-.42.2-.85.28-1.28.05-.21.09-.43.13-.65.15-.78.28-1.57.39-2.37.05-.33.09-.66.13-1,.04-.3.07-.6.09-.9.04-.25.06-.5.07-.75.04-.35.07-.7.08-1.06.04-.5.07-1,.08-1.5.03-.66.04-1.32.04-1.99,0-.81-.02-1.62-.06-2.42-.04-1-.12-1.99-.23-2.96-.03-.27-.06-.55-.09-.82-.04-.31-.08-.61-.13-.92-.05-.39-.11-.77-.18-1.15-.07-.43-.15-.87-.24-1.3-.06-.32-.13-.63-.2-.95-.07-.37-.16-.74-.26-1.11-.08-.36-.18-.73-.28-1.09-.3-1.09-.64-2.16-1.01-3.21-.13-.35-.25-.69-.39-1.04-.28-.71-.57-1.41-.88-2.11,6.22-8.42,13.9-17.84,22.71-29.21,15.82-20.27,35.02-41.94,54.97-64.92,20.44-23.55,36.18-44.22,50.17-58.99l50.05,30.99-147.03,169.5c-3.51,4.05-4.34,9.46-3.67,15.23Z" style="fill: #9d2f92; stroke-width: 0px;"/>
    <path d="M1746.14,700.65c0,14.94-3.32,29.44-9.94,43.51-6.64,14.09-15.07,25.83-25.31,35.26-12.07,10.69-25.44,18.78-40.13,24.29-14.67,5.51-30.75,8.26-48.23,8.26-10.33,0-20.25-.91-29.79-2.73l-4.96-5.33c-3.05-3.28-6-6.46-8.88-9.56-6.57-7.08-12.83-13.82-19.11-20.49.04-.05.08-.1.11-.15,7.84-10.34,14-23.25,18.77-39.47,1.75,2.82,3.72,5.48,5.91,7.96,5.13,5.65,11.04,9.77,17.67,12.37,6.64,2.58,13.6,3.88,20.84,3.88s14.86-1.6,21.97-4.82c7.09-3.23,12.9-7.66,17.43-13.32,4.69-5.34,8.27-11.69,10.76-19.06,2.49-7.4,3.74-15.56,3.74-24.5,0-12.41-3.17-23.33-9.53-32.76-6.33-9.41-19.96-20.42-30.08-26.23l31.05-35.97c10.33,3.68,19.72,8.1,28.15,13.25,16.75,10.22,29.19,22.46,37.34,36.68,8.14,14.24,12.22,30.55,12.22,48.93Z" style="fill: #9d2f92; stroke-width: 0px;"/>
  </g>
</svg>