<?xml version="1.0" encoding="UTF-8"?>
<svg id="Layer_1" data-name="Layer 1" xmlns="http://www.w3.org/2000/svg" viewBox="0 0 1920 1080">
  <g>
    <g>
      <path d="M1026.78,811.11c59.14-3.06,156.86-17.43,186.3-85.03,42-96.45,24.27-157.18-6.98-191.35-31.25-34.16-94.3-33.88-94.3-33.88h-108.87l-31.75,54.67h133.95s65.01,2.97,66.2,67.8c1.13,61.56-25.86,122.7-113.11,132.94l-31.45,54.85Z" style="fill: #02894b; stroke-width: 0px;"/>
      <polygon points="980.48 811.11 825.26 811.11 856.75 756.44 1011.87 756.44 980.48 811.11" style="fill: #02894b; stroke-width: 0px;"/>
      <polygon points="1009.49 622.76 933.15 622.76 901.82 677.43 977.79 677.43 1009.49 622.76" style="fill: #02894b; stroke-width: 0px;"/>
    </g>
    <path d="M969.62,498.94h-215.42s-9.16.28-23.13,2.09c-60.2,7.83-113.62,42.68-145.66,94.24,0,0-59.39,95.6,59.86,97.71h102.08s50.9-4.59,29.56,29.35c-13.25,21.06-38.38,33.71-71.7,33.71h-167.93c-11.49,0-18.43-12.71-12.22-22.37h0s-23.55-3.49-23.55-3.49l-16.12,25.86-34.91,55.07h190.93c32.24,0,84.13.8,116.71-3.56,8.46-1.13,24.57-8.13,32.1-10.91,35.15-12.96,67.78-69.61,78.22-120.19,12.62-61.12-68.07-54.48-68.07-54.48l-119.72-.15c-35.36-.04-9.23-38.8-9.23-38.8,12.65-18.39,33.53-29.37,55.85-29.37h156.25c11.49,0,18.43,12.71,12.22,22.37l23.55,3.49,50.35-80.58Z" style="fill: #077cc1; stroke-width: 0px;"/>
    <path d="M551.74,540.8l26.75-42.24h-240.09l-26.75,42.24h-57.74l-145.37,229.5h57.74l-26.75,42.24h240.09l26.75-42.24h49.93l145.37-229.5h-49.93ZM238.71,747.11l126.23-199.28c2.77-4.37,7.59-7.02,12.76-7.02h81.04c11.91,0,19.14,13.13,12.76,23.2l-126.23,199.28c-2.77,4.37-7.59,7.02-12.76,7.02h-81.04c-11.91,0-19.14-13.13-12.76-23.2Z" style="fill: #9d2f92; stroke-width: 0px;"/>
  </g>
  <g>
    <path d="M256.14,447.12c-9.96,0-17.94-3.86-23.93-11.57-5.18-6.71-7.76-15.05-7.76-25.05,0-11.62,3.42-20.9,10.25-27.83,5.92-6.02,13.36-9.03,22.31-9.03,8.43,0,14.91,2.17,19.43,6.49,2.8,2.64,5.18,6.07,7.13,10.3l-7.23,2.83c-1.46-3.45-3.12-6.1-4.98-7.96-3.32-3.19-8.04-4.79-14.16-4.79-7.88,0-13.98,3.06-18.31,9.18-3.78,5.31-5.66,12.24-5.66,20.8,0,9.73,2.36,17.3,7.08,22.71,4.13,4.69,9.5,7.03,16.11,7.03s12.04-2.47,16.21-7.42c3.61-4.26,5.42-9.46,5.42-15.58v-1.03h-19.43v-6.88h27.54v36.91h-5.42l-1.61-13.13c-3.12,5.24-6.67,8.95-10.64,11.13-3.45,1.92-7.57,2.88-12.35,2.88Z" style="fill: #231f20; stroke-width: 0px;"/>
    <path d="M318.5,447.02c-8.46,0-12.7-4.59-12.7-13.77v-62.3h8.3v62.99c0,4.13,1.9,6.2,5.71,6.2,1.99,0,3.71-.57,5.18-1.71l2.73,6.2c-2.67,1.6-5.75,2.39-9.23,2.39Z" style="fill: #231f20; stroke-width: 0px;"/>
    <path d="M358.29,393.07c7.62,0,13.75,2.88,18.41,8.64,4.07,4.98,6.1,11.08,6.1,18.31,0,8.46-2.62,15.27-7.86,20.41-4.56,4.46-10.21,6.69-16.94,6.69-7.62,0-13.79-2.88-18.51-8.64-4.07-4.98-6.1-11.1-6.1-18.36,0-8.46,2.62-15.25,7.86-20.36,4.59-4.46,10.27-6.69,17.04-6.69ZM358.29,399.95c-5.4,0-9.57,2.04-12.5,6.1-2.54,3.55-3.81,8.29-3.81,14.21,0,6.54,1.63,11.62,4.88,15.23,2.86,3.16,6.58,4.74,11.13,4.74,5.31,0,9.42-2.05,12.35-6.15,2.57-3.58,3.86-8.24,3.86-13.96,0-6.51-1.64-11.62-4.93-15.33-2.87-3.22-6.53-4.83-10.99-4.83Z" style="fill: #231f20; stroke-width: 0px;"/>
    <path d="M407.27,402.54c4.1-6.31,9.9-9.47,17.38-9.47s12.84,2.77,16.94,8.3c3.58,4.79,5.37,10.94,5.37,18.46,0,8.85-2.29,15.77-6.88,20.75-4,4.36-9.18,6.54-15.53,6.54-7.65,0-13.41-3.09-17.29-9.28v8.4h-8.3v-75.29h8.3v31.59ZM423.28,399.95c-5.47,0-9.65,2.04-12.55,6.1-2.51,3.52-3.76,8.2-3.76,14.06,0,6.84,1.59,12.01,4.79,15.53,2.8,3.06,6.61,4.59,11.43,4.59,10.12,0,15.19-6.62,15.19-19.87,0-6.87-1.51-12.09-4.54-15.67-2.6-3.16-6.12-4.74-10.55-4.74Z" style="fill: #231f20; stroke-width: 0px;"/>
    <path d="M505.02,446.53c-.75.06-1.71.1-2.88.1-5.63,0-9.25-2.49-10.84-7.47-4.46,5.31-9.81,7.96-16.06,7.96-5.21,0-9.36-1.53-12.45-4.59-2.7-2.64-4.05-5.91-4.05-9.81,0-4.1,1.4-7.54,4.2-10.3,2.44-2.41,5.84-4.2,10.21-5.37,4.04-1.07,9.93-1.74,17.68-2v-3.27c0-4.33-.94-7.44-2.83-9.33-1.66-1.66-4.15-2.49-7.47-2.49-2.73,0-5.24.5-7.52,1.49-2.28.99-4.77,2.66-7.47,5l-4.88-5.42c3.12-2.83,6.23-4.87,9.33-6.1,3.09-1.24,6.61-1.86,10.55-1.86,6.41,0,11.21,1.82,14.4,5.47,2.8,3.19,4.2,7.6,4.2,13.23v23.29c0,1.86.42,3.13,1.27,3.83.85.7,2.39,1.08,4.64,1.15v6.49ZM490.81,420.95c-8.95.33-15.27,1.48-18.95,3.47-3.22,1.79-4.83,4.43-4.83,7.91,0,2.6.83,4.61,2.49,6.01,1.66,1.4,4.02,2.1,7.08,2.1,4.46,0,8.02-1.22,10.69-3.66,2.34-2.12,3.52-4.72,3.52-7.81v-8.01Z" style="fill: #231f20; stroke-width: 0px;"/>
    <path d="M531.1,447.02c-8.46,0-12.7-4.59-12.7-13.77v-62.3h8.3v62.99c0,4.13,1.9,6.2,5.71,6.2,1.99,0,3.71-.57,5.18-1.71l2.73,6.2c-2.67,1.6-5.75,2.39-9.23,2.39Z" style="fill: #231f20; stroke-width: 0px;"/>
    <path d="M606.24,447.12c-14.23,0-23.23-5.35-27-16.06l7.42-3.03c1.46,4.69,4.02,7.98,7.67,9.86,2.96,1.56,6.93,2.34,11.91,2.34,5.6,0,9.93-1.38,12.99-4.15,2.67-2.38,4-5.52,4-9.42,0-3.58-1.17-6.38-3.52-8.4-1.37-1.2-3.08-2.19-5.13-2.95-2.05-.76-5.63-1.78-10.74-3.05-7.49-1.82-12.86-3.96-16.11-6.4-4-2.96-6.01-7.29-6.01-12.99,0-6.25,2.29-11.08,6.88-14.5,4-2.99,9.24-4.49,15.72-4.49s11.8,1.06,15.58,3.17c3.61,2.02,6.43,5.22,8.45,9.62l-6.84,3.47c-1.76-3.91-4.12-6.51-7.08-7.81-2.28-1.04-5.62-1.56-10.01-1.56-4.88,0-8.61,1.16-11.18,3.47-2.28,2.02-3.42,4.69-3.42,8.01,0,3.87,1.63,6.77,4.88,8.69,2.31,1.33,6.45,2.67,12.4,4,8.24,1.82,14.11,4.12,17.63,6.88,4.39,3.61,6.59,8.48,6.59,14.6,0,6.74-2.57,12-7.71,15.77-4.46,3.29-10.25,4.93-17.38,4.93Z" style="fill: #231f20; stroke-width: 0px;"/>
    <path d="M670.6,447.12c-8.69,0-15.37-2.8-20.02-8.4-3.91-4.75-5.86-10.92-5.86-18.51,0-8.59,2.49-15.43,7.47-20.51,4.33-4.43,9.77-6.64,16.31-6.64,7.45,0,13.18,2.62,17.19,7.86,3.48,4.56,5.22,10.6,5.22,18.12v2.69h-37.6c.1,3.65.58,6.63,1.44,8.96.86,2.33,2.22,4.34,4.08,6.03,2.6,2.34,6.46,3.52,11.57,3.52,3.19,0,5.86-.55,8.01-1.66,2.15-1.11,4.15-2.95,6.01-5.52l6.1,4.88c-4.26,6.12-10.91,9.18-19.92,9.18ZM653.61,415.04h28.81c-.59-5.7-2.08-9.7-4.49-12.01-2.15-2.05-5.26-3.08-9.33-3.08-8.11,0-13.1,5.03-14.99,15.09Z" style="fill: #231f20; stroke-width: 0px;"/>
    <path d="M704,393.94h8.3v8.4c3.35-6.18,8.02-9.28,14.01-9.28,3.06,0,5.89.7,8.5,2.1l-3.42,6.98c-2.02-1.04-4.05-1.56-6.1-1.56-4.33,0-7.65,1.73-9.96,5.18-2.02,2.96-3.03,6.88-3.03,11.77v28.71h-8.3v-52.29Z" style="fill: #231f20; stroke-width: 0px;"/>
    <path d="M739.05,393.94h8.98l14.01,43.9,13.72-43.9h8.59l-17.63,52.29h-9.77l-17.92-52.29Z" style="fill: #231f20; stroke-width: 0px;"/>
    <path d="M800.53,372.17c1.5,0,2.78.54,3.86,1.61s1.61,2.36,1.61,3.86-.54,2.83-1.61,3.91-2.36,1.61-3.86,1.61-2.83-.54-3.91-1.61-1.61-2.38-1.61-3.91.54-2.78,1.61-3.86,2.38-1.61,3.91-1.61ZM796.53,393.94h8.3v52.29h-8.3v-52.29Z" style="fill: #231f20; stroke-width: 0px;"/>
    <path d="M845.7,447.12c-7.81,0-14.01-2.83-18.6-8.5-4-4.92-6.01-11.08-6.01-18.51,0-8.66,2.51-15.49,7.52-20.51,4.36-4.36,9.9-6.54,16.6-6.54,8.33,0,14.89,3.47,19.68,10.4l-6.88,4.3c-1.99-2.96-3.9-5-5.74-6.13-1.84-1.12-4.16-1.68-6.96-1.68-5.27,0-9.28,2.04-12.01,6.1-2.41,3.52-3.61,8.29-3.61,14.31,0,6.8,1.58,11.91,4.74,15.33,2.77,3.03,6.59,4.54,11.47,4.54,5.99,0,10.6-2.6,13.82-7.81l6.49,3.71c-2.6,4.17-5.76,7.13-9.47,8.89-3.06,1.4-6.74,2.1-11.04,2.1Z" style="fill: #231f20; stroke-width: 0px;"/>
    <path d="M899.16,447.12c-8.69,0-15.37-2.8-20.02-8.4-3.91-4.75-5.86-10.92-5.86-18.51,0-8.59,2.49-15.43,7.47-20.51,4.33-4.43,9.77-6.64,16.31-6.64,7.45,0,13.18,2.62,17.19,7.86,3.48,4.56,5.22,10.6,5.22,18.12v2.69h-37.6c.1,3.65.58,6.63,1.44,8.96.86,2.33,2.22,4.34,4.08,6.03,2.6,2.34,6.46,3.52,11.57,3.52,3.19,0,5.86-.55,8.01-1.66,2.15-1.11,4.15-2.95,6.01-5.52l6.1,4.88c-4.26,6.12-10.91,9.18-19.92,9.18ZM882.17,415.04h28.81c-.59-5.7-2.08-9.7-4.49-12.01-2.15-2.05-5.26-3.08-9.33-3.08-8.11,0-13.1,5.03-14.99,15.09Z" style="fill: #231f20; stroke-width: 0px;"/>
  </g>
  <g>
    <g>
      <path d="M1357.29,623.24c16.06-6.03,34.86-6.12,52.6,1.15,35.49,14.55,53.3,53.07,39.78,86.02-13.51,32.96-53.24,47.88-88.72,33.33-31.52-12.93-49.1-44.76-43.16-74.81l-53.11,60.61c14.59,29.36,40.31,54.24,74.16,68.12,70.27,28.82,148.94-.73,175.7-65.99,26.76-65.27-8.51-141.53-78.78-170.35-6.39-2.62-12.85-4.76-19.34-6.43l-59.13,68.36Z" style="fill: #077cc1; stroke-width: 0px;"/>
      <polygon points="1272.66 576.26 1329.17 508.34 1455.89 508.34 1396.55 578.31 1272.66 576.26" style="fill: #077cc1; stroke-width: 0px;"/>
    </g>
    <path d="M1609.67,701.06c-.67-5.77.16-11.18,3.67-15.23l147.03-169.5-50.05-30.99c-13.99,14.77-29.73,35.44-50.17,58.99-19.95,22.98-39.15,44.65-54.97,64.92-8.81,11.37-16.49,20.79-22.71,29.21.31.7.6,1.4.88,2.11.14.35.26.69.39,1.04.37,1.05.71,2.12,1.01,3.21.1.36.2.73.28,1.09.1.37.19.74.26,1.11.07.32.14.63.2.95.09.43.17.87.24,1.3.07.38.13.76.18,1.15.05.31.09.61.13.92.03.27.06.55.09.82.11.97.19,1.96.23,2.96.04.8.06,1.61.06,2.42,0,.67,0,1.33-.04,1.99,0,.5-.04,1-.08,1.5-.01.36-.04.71-.08,1.06-.01.25-.03.5-.07.75-.02.3-.05.6-.09.9-.04.34-.08.67-.13,1-.11.8-.24,1.59-.39,2.37-.04.22-.08.44-.13.65-.08.43-.18.86-.28,1.28-.14.61-.3,1.21-.47,1.81,0,.01,0,.02,0,.02-.15.53-.3,1.05-.47,1.57-.03.11-.07.22-.11.34-.18.55-.37,1.11-.58,1.65-.02.04-.03.09-.05.14-.2.54-.41,1.07-.64,1.6-.22.53-.46,1.06-.71,1.58-.04.11-.1.23-.16.34-.19.41-.39.82-.6,1.22-.1.21-.21.42-.32.62-.16.29-.32.58-.49.87-.11.21-.22.41-.35.62-.28.5-.59.99-.9,1.49-.02.03-.03.05-.04.07-.33.52-.68,1.04-1.04,1.56-.32.47-.65.94-1,1.4-.5.69-1.03,1.37-1.58,2.04-.14.18-.29.36-.45.54-1.01,1.22-2.09,2.41-3.26,3.59-.33.35-.68.69-1.03,1.03-.13.13-.26.26-.4.39-.38.36-.76.72-1.15,1.08-.96.88-1.96,1.76-3.01,2.63-.27.22-.55.45-.84.68-.34.27-.69.55-1.05.83-1.33,1.04-2.72,2.06-4.18,3.08-.21,3.24-.32,6.51-.32,9.79,0,4.43.21,8.74.65,12.92,3.29,3.81,6.5,7.51,9.59,11.05l.08-.09,15.05,16.67,66.2,60.3-26.72-76.85s-11.94-12.68-15.11-34.56Z" style="fill: #9d2f92; stroke-width: 0px;"/>
    <path d="M1792.25,702.03c0,14.94-3.32,29.44-9.94,43.51-6.64,14.09-15.07,25.83-25.31,35.26-12.07,10.69-25.44,18.78-40.13,24.29-14.67,5.51-30.75,8.26-48.23,8.26-10.33,0-20.25-.91-29.79-2.73l-4.96-5.33c-3.05-3.28-6-6.46-8.88-9.56-6.57-7.08-12.83-13.82-19.11-20.49.04-.05.08-.1.11-.15,7.84-10.34,14-23.25,18.77-39.47,1.75,2.82,3.72,5.48,5.91,7.96,5.13,5.65,11.04,9.77,17.67,12.37,6.64,2.58,13.6,3.88,20.84,3.88s14.86-1.6,21.97-4.82c7.09-3.23,12.9-7.66,17.43-13.32,4.69-5.34,8.27-11.69,10.76-19.06,2.49-7.4,3.74-15.56,3.74-24.5,0-12.41-3.17-23.33-9.53-32.76-6.33-9.41-19.96-20.42-30.08-26.23l31.05-35.97c10.33,3.68,19.72,8.1,28.15,13.25,16.75,10.22,29.19,22.46,37.34,36.68,8.14,14.24,12.22,30.55,12.22,48.93Z" style="fill: #9d2f92; stroke-width: 0px;"/>
    <g>
      <path d="M1616.2,774.52c4.83,5.16,9.69,10.39,14.73,15.82,2.86,3.08,5.79,6.24,8.82,9.5l20.34,21.86h-64.25l-3.81-3.81c-3.21-3.22-6.29-6.4-9.56-9.84-15.66,11.23-33.36,16.71-53.76,16.71-46.44,0-70.73-33.06-70.73-65.71,0-23.74,10.95-43.91,31.83-58.98-6.99-11.84-10.64-24.14-10.64-36.12,0-28.75,21.27-59.29,60.69-59.29,31.61,0,54.55,22.24,54.55,52.88,0,26.61-17.05,43.19-34.46,54.09,8.03,9.29,15.91,18.36,22.93,26.38M1516.92,734.94c-6.39,6.13-9.51,12.9-9.51,20.49,0,14.68,10.48,24.93,25.49,24.93,7.08,0,13.97-1.89,19.96-5.37-9.62-10.58-22.56-24.88-35.93-40.05ZM1538.2,647.39c-3.35,0-5.74,1.05-7.52,3.3-2.03,2.56-3.19,6.58-3.19,11.04,0,5.51,1.41,10.54,4.77,16.27,11.98-8.16,14.69-13.65,14.69-19.34,0-3.39-.85-11.26-8.75-11.26Z" style="fill: #fff; stroke-width: 0px;"/>
      <path d="M1599.27,775.51c10.04,10.6,19.8,21.2,30.96,33.19h-29.01c-5.3-5.3-10.32-10.6-17.57-18.41-16.18,15.06-34.3,21.47-54.94,21.47-36.54,0-57.73-24.54-57.73-52.71,0-25.66,15.34-43.23,36.81-54.94v-.84c-9.76-12.27-15.62-25.94-15.62-39.32,0-22.87,16.45-46.3,47.69-46.3,23.43,0,41.55,15.62,41.55,39.88,0,19.8-11.43,35.42-41.28,50.2v.84c15.9,18.41,33.75,39.05,45.74,52.43M1571.66,776.35c-11.16-12.27-32.07-35.14-52.99-59.13-10.04,6.41-24.26,18.41-24.26,38.21,0,21.48,15.9,37.93,38.49,37.93,16.17,0,29.84-7.25,38.76-17.01ZM1514.49,661.72c0,13.39,6.14,23.7,14.22,33.75,18.96-10.88,31.23-20.92,31.23-36.82,0-11.43-6.41-24.26-21.75-24.26s-23.71,12.83-23.71,27.33Z" style="fill: #c2c1c0; stroke-width: 0px;"/>
    </g>
  </g>
</svg>