<?xml version="1.0" encoding="UTF-8"?>
<svg id="Layer_1" data-name="Layer 1" xmlns="http://www.w3.org/2000/svg" viewBox="0 0 1920 1080">
  <g>
    <g>
      <polygon points="1251.28 606.22 1307.31 538.89 1432.93 538.89 1374.1 608.26 1251.28 606.22" style="fill: #077cc1; stroke-width: 0px;"/>
      <path d="M1488.05,668.93c-14.33-40.94-50.86-72.39-96.16-81.66-.1-.02-.21-.04-.31-.06l-18.28,21.04-33.36,38.38c18.73-4.1,40.22-.42,58.91,11.8,33.86,22.13,45.73,63.91,26.51,93.32-19.23,29.4-62.25,35.29-96.11,13.16-23.41-15.31-36.3-39.99-35.69-63.48l-48.35,57.17c20.58,42.51,66.05,72.05,118.85,72.05,43.51,0,82.04-20.06,105.76-50.9-1.94-1.36-3.74-2.91-5.43-4.67-6.65-6.97-10.01-15.73-10.01-26.06,0-12.84,5.25-23.77,15.59-32.48,1.84-1.55,4.26-3.23,7.28-5.09-1.37-5.29-2.05-10.24-2.05-14.83,0-10.15,3.19-18.48,9.47-24.77,1.08-1.06,2.21-2.03,3.4-2.9Z" style="fill: #077cc1; stroke-width: 0px;"/>
    </g>
    <g>
      <path d="M1728.56,729.05c-1.47-40.32-25.61-74.39-59.84-90.65l-34.46,44.91c5.09,1.64,10.1,3.97,14.93,7.01,28.22,17.77,39.16,53.09,24.46,78.88-14.71,25.79-49.5,32.3-77.72,14.52-13.16-8.29-22.56-20.39-27.35-33.56l-13.57,15.43,4.62,16.39-9.66,2.99c-3.7,1.15-6.93,1.71-9.84,1.71-1.17,0-2.33-.06-3.48-.21l-3.74,4.26c19.59,30.25,54.41,49.64,93.37,48.01,58.61-2.47,104.42-51.57,102.29-109.7Z" style="fill: #9d2f92; stroke-width: 0px;"/>
      <path d="M1549.12,727.44l1.25-11.5h-26.74c.5-.43.97-.86,1.42-1.29l.06-.06c6.2-6.07,9.49-13.84,9.49-22.49,0-6.89-2.01-12.97-6-18.11,1.87-2.65,3.9-5.36,6.12-8.12l124.34-145.08,46.93,40.54-161.3,186.71c2.09-5.87,3.58-12.79,4.42-20.6Z" style="fill: #9d2f92; stroke-width: 0px;"/>
    </g>
    <path d="M1494.2,776.45c-9.4,0-16.85-2.86-22.33-8.57-4.75-4.98-7.12-11.27-7.12-18.88,0-9.68,3.96-17.86,11.89-24.55,2.58-2.17,6.91-4.89,13-8.16-2.72-7.37-4.08-13.94-4.08-19.71,0-7.33,2.14-13.14,6.43-17.42,3.78-3.73,8.53-5.6,14.24-5.6s10.03,1.98,13.48,5.95c3,3.46,4.49,7.65,4.49,12.58,0,5.9-2.12,10.92-6.36,15.07-3.73,3.6-10.05,7.49-18.95,11.69,5.67,12.35,13.16,24.25,22.47,35.68,2.77-4.01,4.9-8.16,6.4-12.45,1.5-4.29,2.69-9.54,3.56-15.76h7.47c-.78,7.24-2.13,13.46-4.04,18.67-1.91,5.21-4.71,10.28-8.4,15.21,3.18,3.32,5.8,5.64,7.85,6.95,2.05,1.31,4.11,1.97,6.19,1.97,1.11,0,2.6-.39,4.49-1.18l2.01,7.12c-2.67.83-4.93,1.24-6.78,1.24-3.23,0-6.32-.79-9.27-2.39-2.95-1.59-6.25-4.23-9.89-7.92-8.2,6.96-17.12,10.44-26.76,10.44ZM1494.62,769.54c7.65,0,14.82-3.02,21.5-9.06-10.33-12.91-18.35-25.7-24.06-38.37-6.96,3.87-11.86,7.77-14.69,11.69-2.84,3.92-4.25,8.71-4.25,14.38,0,6.87,2.21,12.28,6.64,16.25,3.87,3.41,8.83,5.12,14.87,5.12ZM1496.62,713.19l1.11-.55c3.96-2.03,6.71-3.55,8.23-4.56,7.05-4.33,10.58-9.66,10.58-15.97,0-3.55-.94-6.37-2.83-8.47-1.89-2.1-4.43-3.15-7.61-3.15-4.24,0-7.51,1.66-9.82,4.98-2.03,2.86-3.04,6.61-3.04,11.27s1.13,10.05,3.39,16.46Z" style="fill: #18847f; stroke-width: 0px;"/>
  </g>
  <g>
    <g>
      <path d="M993.84,836.75c59.14-3.06,156.86-17.43,186.3-85.03,42-96.45,24.27-157.18-6.98-191.35-31.25-34.16-94.3-33.88-94.3-33.88h-108.87l-31.75,54.67h133.95s65.01,2.97,66.2,67.8c1.13,61.56-25.86,122.7-113.11,132.94l-31.45,54.85Z" style="fill: #02894b; stroke-width: 0px;"/>
      <polygon points="947.53 836.75 792.32 836.75 823.81 782.08 978.93 782.08 947.53 836.75" style="fill: #02894b; stroke-width: 0px;"/>
      <polygon points="976.55 648.4 900.21 648.4 868.88 703.07 944.84 703.07 976.55 648.4" style="fill: #02894b; stroke-width: 0px;"/>
    </g>
    <path d="M936.68,524.57h-215.42s-9.16.28-23.13,2.09c-60.2,7.83-113.62,42.68-145.66,94.24,0,0-59.39,95.6,59.86,97.71h102.08s50.9-4.59,29.56,29.35c-13.25,21.06-38.38,33.71-71.7,33.71h-167.93c-11.49,0-18.43-12.71-12.22-22.37h0s-23.55-3.49-23.55-3.49l-16.12,25.86-34.91,55.07h190.93c32.24,0,84.13.8,116.71-3.56,8.46-1.13,24.57-8.13,32.1-10.91,35.15-12.96,67.78-69.61,78.22-120.19,12.62-61.12-68.07-54.48-68.07-54.48l-119.72-.15c-35.36-.04-9.23-38.8-9.23-38.8,12.65-18.39,33.53-29.37,55.85-29.37h156.25c11.49,0,18.43,12.71,12.22,22.37l23.55,3.49,50.35-80.58Z" style="fill: #077cc1; stroke-width: 0px;"/>
    <path d="M518.79,566.44l26.75-42.24h-240.09l-26.75,42.24h-57.74l-145.37,229.5h57.74l-26.75,42.24h240.09l26.75-42.24h49.93l145.37-229.5h-49.93ZM205.76,772.74l126.23-199.28c2.77-4.37,7.59-7.02,12.76-7.02h81.04c11.91,0,19.14,13.13,12.76,23.2l-126.23,199.28c-2.77,4.37-7.59,7.02-12.76,7.02h-81.04c-11.91,0-19.14-13.13-12.76-23.2Z" style="fill: #9d2f92; stroke-width: 0px;"/>
  </g>
</svg>