<?xml version="1.0" encoding="UTF-8"?>
<svg id="Layer_1" data-name="Layer 1" xmlns="http://www.w3.org/2000/svg" viewBox="0 0 1920 1080">
  <g>
    <g>
      <polygon points="1251.28 606.22 1307.31 538.89 1432.93 538.89 1374.1 608.26 1251.28 606.22" style="fill: #077cc1; stroke-width: 0px;"/>
      <path d="M1488.05,668.93c-14.33-40.94-50.86-72.39-96.16-81.66-.1-.02-.21-.04-.31-.06l-18.28,21.04-33.36,38.38c18.73-4.1,40.22-.42,58.91,11.8,33.86,22.13,45.73,63.91,26.51,93.32-19.23,29.4-62.25,35.29-96.11,13.16-23.41-15.31-36.3-39.99-35.69-63.48l-48.35,57.17c20.58,42.51,66.05,72.05,118.85,72.05,43.51,0,82.04-20.06,105.76-50.9-1.94-1.36-3.74-2.91-5.43-4.67-6.65-6.97-10.01-15.73-10.01-26.06,0-12.84,5.25-23.77,15.59-32.48,1.84-1.55,4.26-3.23,7.28-5.09-1.37-5.29-2.05-10.24-2.05-14.83,0-10.15,3.19-18.48,9.47-24.77,1.08-1.06,2.21-2.03,3.4-2.9Z" style="fill: #077cc1; stroke-width: 0px;"/>
    </g>
    <g>
      <path d="M1728.56,729.05c-1.47-40.32-25.61-74.39-59.84-90.65l-34.46,44.91c5.09,1.64,10.1,3.97,14.93,7.01,28.22,17.77,39.16,53.09,24.46,78.88-14.71,25.79-49.5,32.3-77.72,14.52-13.16-8.29-22.56-20.39-27.35-33.56l-13.57,15.43,4.62,16.39-9.66,2.99c-3.7,1.15-6.93,1.71-9.84,1.71-1.17,0-2.33-.06-3.48-.21l-3.74,4.26c19.59,30.25,54.41,49.64,93.37,48.01,58.61-2.47,104.42-51.57,102.29-109.7Z" style="fill: #9d2f92; stroke-width: 0px;"/>
      <path d="M1549.12,727.44l1.25-11.5h-26.74c.5-.43.97-.86,1.42-1.29l.06-.06c6.2-6.07,9.49-13.84,9.49-22.49,0-6.89-2.01-12.97-6-18.11,1.87-2.65,3.9-5.36,6.12-8.12l124.34-145.08,46.93,40.54-161.3,186.71c2.09-5.87,3.58-12.79,4.42-20.6Z" style="fill: #9d2f92; stroke-width: 0px;"/>
    </g>
    <path d="M1494.2,776.45c-9.4,0-16.85-2.86-22.33-8.57-4.75-4.98-7.12-11.27-7.12-18.88,0-9.68,3.96-17.86,11.89-24.55,2.58-2.17,6.91-4.89,13-8.16-2.72-7.37-4.08-13.94-4.08-19.71,0-7.33,2.14-13.14,6.43-17.42,3.78-3.73,8.53-5.6,14.24-5.6s10.03,1.98,13.48,5.95c3,3.46,4.49,7.65,4.49,12.58,0,5.9-2.12,10.92-6.36,15.07-3.73,3.6-10.05,7.49-18.95,11.69,5.67,12.35,13.16,24.25,22.47,35.68,2.77-4.01,4.9-8.16,6.4-12.45,1.5-4.29,2.69-9.54,3.56-15.76h7.47c-.78,7.24-2.13,13.46-4.04,18.67-1.91,5.21-4.71,10.28-8.4,15.21,3.18,3.32,5.8,5.64,7.85,6.95,2.05,1.31,4.11,1.97,6.19,1.97,1.11,0,2.6-.39,4.49-1.18l2.01,7.12c-2.67.83-4.93,1.24-6.78,1.24-3.23,0-6.32-.79-9.27-2.39-2.95-1.59-6.25-4.23-9.89-7.92-8.2,6.96-17.12,10.44-26.76,10.44ZM1494.62,769.54c7.65,0,14.82-3.02,21.5-9.06-10.33-12.91-18.35-25.7-24.06-38.37-6.96,3.87-11.86,7.77-14.69,11.69-2.84,3.92-4.25,8.71-4.25,14.38,0,6.87,2.21,12.28,6.64,16.25,3.87,3.41,8.83,5.12,14.87,5.12ZM1496.62,713.19l1.11-.55c3.96-2.03,6.71-3.55,8.23-4.56,7.05-4.33,10.58-9.66,10.58-15.97,0-3.55-.94-6.37-2.83-8.47-1.89-2.1-4.43-3.15-7.61-3.15-4.24,0-7.51,1.66-9.82,4.98-2.03,2.86-3.04,6.61-3.04,11.27s1.13,10.05,3.39,16.46Z" style="fill: #18847f; stroke-width: 0px;"/>
  </g>
  <g>
    <g>
      <path d="M993.84,836.75c59.14-3.06,156.86-17.43,186.3-85.03,42-96.45,24.27-157.18-6.98-191.35-31.25-34.16-94.3-33.88-94.3-33.88h-108.87l-31.75,54.67h133.95s65.01,2.97,66.2,67.8c1.13,61.56-25.86,122.7-113.11,132.94l-31.45,54.85Z" style="fill: #02894b; stroke-width: 0px;"/>
      <polygon points="947.53 836.75 792.32 836.75 823.81 782.08 978.93 782.08 947.53 836.75" style="fill: #02894b; stroke-width: 0px;"/>
      <polygon points="976.55 648.4 900.21 648.4 868.88 703.07 944.84 703.07 976.55 648.4" style="fill: #02894b; stroke-width: 0px;"/>
    </g>
    <path d="M936.68,524.57h-215.42s-9.16.28-23.13,2.09c-60.2,7.83-113.62,42.68-145.66,94.24,0,0-59.39,95.6,59.86,97.71h102.08s50.9-4.59,29.56,29.35c-13.25,21.06-38.38,33.71-71.7,33.71h-167.93c-11.49,0-18.43-12.71-12.22-22.37h0s-23.55-3.49-23.55-3.49l-16.12,25.86-34.91,55.07h190.93c32.24,0,84.13.8,116.71-3.56,8.46-1.13,24.57-8.13,32.1-10.91,35.15-12.96,67.78-69.61,78.22-120.19,12.62-61.12-68.07-54.48-68.07-54.48l-119.72-.15c-35.36-.04-9.23-38.8-9.23-38.8,12.65-18.39,33.53-29.37,55.85-29.37h156.25c11.49,0,18.43,12.71,12.22,22.37l23.55,3.49,50.35-80.58Z" style="fill: #077cc1; stroke-width: 0px;"/>
    <path d="M518.79,566.44l26.75-42.24h-240.09l-26.75,42.24h-57.74l-145.37,229.5h57.74l-26.75,42.24h240.09l26.75-42.24h49.93l145.37-229.5h-49.93ZM205.76,772.74l126.23-199.28c2.77-4.37,7.59-7.02,12.76-7.02h81.04c11.91,0,19.14,13.13,12.76,23.2l-126.23,199.28c-2.77,4.37-7.59,7.02-12.76,7.02h-81.04c-11.91,0-19.14-13.13-12.76-23.2Z" style="fill: #9d2f92; stroke-width: 0px;"/>
  </g>
  <g>
    <path d="M223.2,472.76c-9.96,0-17.94-3.86-23.93-11.57-5.18-6.71-7.76-15.05-7.76-25.05,0-11.62,3.42-20.9,10.25-27.83,5.92-6.02,13.36-9.03,22.31-9.03,8.43,0,14.91,2.17,19.43,6.49,2.8,2.64,5.18,6.07,7.13,10.3l-7.23,2.83c-1.46-3.45-3.12-6.1-4.98-7.96-3.32-3.19-8.04-4.79-14.16-4.79-7.88,0-13.98,3.06-18.31,9.18-3.78,5.31-5.66,12.24-5.66,20.8,0,9.73,2.36,17.3,7.08,22.71,4.13,4.69,9.5,7.03,16.11,7.03s12.04-2.47,16.21-7.42c3.61-4.26,5.42-9.46,5.42-15.58v-1.03h-19.43v-6.88h27.54v36.91h-5.42l-1.61-13.13c-3.12,5.24-6.67,8.95-10.64,11.13-3.45,1.92-7.57,2.88-12.35,2.88Z" style="fill: #231f20; stroke-width: 0px;"/>
    <path d="M294.34,472.76c-8.69,0-15.37-2.8-20.02-8.4-3.91-4.75-5.86-10.92-5.86-18.51,0-8.59,2.49-15.43,7.47-20.51,4.33-4.43,9.77-6.64,16.31-6.64,7.45,0,13.18,2.62,17.19,7.86,3.48,4.56,5.22,10.6,5.22,18.12v2.69h-37.6c.1,3.65.58,6.63,1.44,8.96.86,2.33,2.22,4.34,4.08,6.03,2.6,2.34,6.46,3.52,11.57,3.52,3.19,0,5.86-.55,8.01-1.66,2.15-1.11,4.15-2.95,6.01-5.52l6.1,4.88c-4.26,6.12-10.91,9.18-19.92,9.18ZM277.35,440.67h28.81c-.59-5.7-2.08-9.7-4.49-12.01-2.15-2.05-5.26-3.08-9.33-3.08-8.11,0-13.1,5.03-14.99,15.09Z" style="fill: #231f20; stroke-width: 0px;"/>
    <path d="M327.74,419.58h8.3v8.01c3.22-5.92,8.53-8.89,15.92-8.89,5.96,0,10.42,2.02,13.38,6.05,2.6,3.52,3.91,8.42,3.91,14.7v32.42h-8.3v-33.01c0-4.79-1.01-8.2-3.03-10.25-1.79-1.82-4.48-2.73-8.06-2.73-4.49,0-8.01,1.43-10.55,4.3-2.18,2.51-3.27,5.75-3.27,9.72v31.98h-8.3v-52.29Z" style="fill: #231f20; stroke-width: 0px;"/>
    <path d="M410.75,472.76c-8.69,0-15.37-2.8-20.02-8.4-3.91-4.75-5.86-10.92-5.86-18.51,0-8.59,2.49-15.43,7.47-20.51,4.33-4.43,9.77-6.64,16.31-6.64,7.45,0,13.18,2.62,17.19,7.86,3.48,4.56,5.22,10.6,5.22,18.12v2.69h-37.6c.1,3.65.58,6.63,1.44,8.96.86,2.33,2.22,4.34,4.08,6.03,2.6,2.34,6.46,3.52,11.57,3.52,3.19,0,5.86-.55,8.01-1.66,2.15-1.11,4.15-2.95,6.01-5.52l6.1,4.88c-4.26,6.12-10.91,9.18-19.92,9.18ZM393.76,440.67h28.81c-.59-5.7-2.08-9.7-4.49-12.01-2.15-2.05-5.26-3.08-9.33-3.08-8.11,0-13.1,5.03-14.99,15.09Z" style="fill: #231f20; stroke-width: 0px;"/>
    <path d="M444.15,419.58h8.3v8.4c3.35-6.18,8.02-9.28,14.01-9.28,3.06,0,5.89.7,8.5,2.1l-3.42,6.98c-2.02-1.04-4.05-1.56-6.1-1.56-4.33,0-7.65,1.73-9.96,5.18-2.02,2.96-3.03,6.88-3.03,11.77v28.71h-8.3v-52.29Z" style="fill: #231f20; stroke-width: 0px;"/>
    <path d="M526.67,472.17c-.75.06-1.71.1-2.88.1-5.63,0-9.25-2.49-10.84-7.47-4.46,5.31-9.81,7.96-16.06,7.96-5.21,0-9.36-1.53-12.45-4.59-2.7-2.64-4.05-5.91-4.05-9.81,0-4.1,1.4-7.54,4.2-10.3,2.44-2.41,5.84-4.2,10.21-5.37,4.04-1.07,9.93-1.74,17.68-2v-3.27c0-4.33-.94-7.44-2.83-9.33-1.66-1.66-4.15-2.49-7.47-2.49-2.73,0-5.24.5-7.52,1.49-2.28.99-4.77,2.66-7.47,5l-4.88-5.42c3.12-2.83,6.23-4.87,9.33-6.1,3.09-1.24,6.61-1.86,10.55-1.86,6.41,0,11.21,1.82,14.4,5.47,2.8,3.19,4.2,7.6,4.2,13.23v23.29c0,1.86.42,3.13,1.27,3.83.85.7,2.39,1.08,4.64,1.15v6.49ZM512.46,446.58c-8.95.33-15.27,1.48-18.95,3.47-3.22,1.79-4.83,4.43-4.83,7.91,0,2.6.83,4.61,2.49,6.01,1.66,1.4,4.02,2.1,7.08,2.1,4.46,0,8.02-1.22,10.69-3.66,2.34-2.12,3.52-4.72,3.52-7.81v-8.01Z" style="fill: #231f20; stroke-width: 0px;"/>
    <path d="M552.74,472.66c-8.46,0-12.7-4.59-12.7-13.77v-62.3h8.3v62.99c0,4.13,1.9,6.2,5.71,6.2,1.99,0,3.71-.57,5.18-1.71l2.73,6.2c-2.67,1.6-5.75,2.39-9.23,2.39Z" style="fill: #231f20; stroke-width: 0px;"/>
    <path d="M627.89,472.76c-14.23,0-23.23-5.35-27-16.06l7.42-3.03c1.46,4.69,4.02,7.98,7.67,9.86,2.96,1.56,6.93,2.34,11.91,2.34,5.6,0,9.93-1.38,12.99-4.15,2.67-2.38,4-5.52,4-9.42,0-3.58-1.17-6.38-3.52-8.4-1.37-1.2-3.08-2.19-5.13-2.95-2.05-.76-5.63-1.78-10.74-3.05-7.49-1.82-12.86-3.96-16.11-6.4-4-2.96-6.01-7.29-6.01-12.99,0-6.25,2.29-11.08,6.88-14.5,4-2.99,9.24-4.49,15.72-4.49s11.8,1.06,15.58,3.17c3.61,2.02,6.43,5.22,8.45,9.62l-6.84,3.47c-1.76-3.91-4.12-6.51-7.08-7.81-2.28-1.04-5.62-1.56-10.01-1.56-4.88,0-8.61,1.16-11.18,3.47-2.28,2.02-3.42,4.69-3.42,8.01,0,3.87,1.63,6.77,4.88,8.69,2.31,1.33,6.45,2.67,12.4,4,8.24,1.82,14.11,4.12,17.63,6.88,4.39,3.61,6.59,8.48,6.59,14.6,0,6.74-2.57,12-7.71,15.77-4.46,3.29-10.25,4.93-17.38,4.93Z" style="fill: #231f20; stroke-width: 0px;"/>
    <path d="M692.24,472.76c-8.69,0-15.37-2.8-20.02-8.4-3.91-4.75-5.86-10.92-5.86-18.51,0-8.59,2.49-15.43,7.47-20.51,4.33-4.43,9.77-6.64,16.31-6.64,7.45,0,13.18,2.62,17.19,7.86,3.48,4.56,5.22,10.6,5.22,18.12v2.69h-37.6c.1,3.65.58,6.63,1.44,8.96.86,2.33,2.22,4.34,4.08,6.03,2.6,2.34,6.46,3.52,11.57,3.52,3.19,0,5.86-.55,8.01-1.66,2.15-1.11,4.15-2.95,6.01-5.52l6.1,4.88c-4.26,6.12-10.91,9.18-19.92,9.18ZM675.25,440.67h28.81c-.59-5.7-2.08-9.7-4.49-12.01-2.15-2.05-5.26-3.08-9.33-3.08-8.11,0-13.1,5.03-14.99,15.09Z" style="fill: #231f20; stroke-width: 0px;"/>
    <path d="M725.64,419.58h8.3v8.4c3.35-6.18,8.02-9.28,14.01-9.28,3.06,0,5.89.7,8.5,2.1l-3.42,6.98c-2.02-1.04-4.05-1.56-6.1-1.56-4.33,0-7.65,1.73-9.96,5.18-2.02,2.96-3.03,6.88-3.03,11.77v28.71h-8.3v-52.29Z" style="fill: #231f20; stroke-width: 0px;"/>
    <path d="M760.7,419.58h8.98l14.01,43.9,13.72-43.9h8.59l-17.63,52.29h-9.77l-17.92-52.29Z" style="fill: #231f20; stroke-width: 0px;"/>
    <path d="M822.17,397.8c1.5,0,2.78.54,3.86,1.61s1.61,2.36,1.61,3.86-.54,2.83-1.61,3.91-2.36,1.61-3.86,1.61-2.83-.54-3.91-1.61-1.61-2.38-1.61-3.91.54-2.78,1.61-3.86,2.38-1.61,3.91-1.61ZM818.17,419.58h8.3v52.29h-8.3v-52.29Z" style="fill: #231f20; stroke-width: 0px;"/>
    <path d="M867.34,472.76c-7.81,0-14.01-2.83-18.6-8.5-4-4.92-6.01-11.08-6.01-18.51,0-8.66,2.51-15.49,7.52-20.51,4.36-4.36,9.9-6.54,16.6-6.54,8.33,0,14.89,3.47,19.68,10.4l-6.88,4.3c-1.99-2.96-3.9-5-5.74-6.13-1.84-1.12-4.16-1.68-6.96-1.68-5.27,0-9.28,2.04-12.01,6.1-2.41,3.52-3.61,8.29-3.61,14.31,0,6.8,1.58,11.91,4.74,15.33,2.77,3.03,6.59,4.54,11.47,4.54,5.99,0,10.6-2.6,13.82-7.81l6.49,3.71c-2.6,4.17-5.76,7.13-9.47,8.89-3.06,1.4-6.74,2.1-11.04,2.1Z" style="fill: #231f20; stroke-width: 0px;"/>
    <path d="M920.81,472.76c-8.69,0-15.37-2.8-20.02-8.4-3.91-4.75-5.86-10.92-5.86-18.51,0-8.59,2.49-15.43,7.47-20.51,4.33-4.43,9.77-6.64,16.31-6.64,7.45,0,13.18,2.62,17.19,7.86,3.48,4.56,5.22,10.6,5.22,18.12v2.69h-37.6c.1,3.65.58,6.63,1.44,8.96.86,2.33,2.22,4.34,4.08,6.03,2.6,2.34,6.46,3.52,11.57,3.52,3.19,0,5.86-.55,8.01-1.66,2.15-1.11,4.15-2.95,6.01-5.52l6.1,4.88c-4.26,6.12-10.91,9.18-19.92,9.18ZM903.81,440.67h28.81c-.59-5.7-2.08-9.7-4.49-12.01-2.15-2.05-5.26-3.08-9.33-3.08-8.11,0-13.1,5.03-14.99,15.09Z" style="fill: #231f20; stroke-width: 0px;"/>
  </g>
</svg>