<?xml version="1.0" encoding="UTF-8"?>
<svg id="Layer_1" data-name="Layer 1" xmlns="http://www.w3.org/2000/svg" viewBox="0 0 1920 1080">
  <g>
    <g>
      <path d="M1026.78,811.11c59.14-3.06,156.86-17.43,186.3-85.03,42-96.45,24.27-157.18-6.98-191.35-31.25-34.16-94.3-33.88-94.3-33.88h-108.87l-31.75,54.67h133.95s65.01,2.97,66.2,67.8c1.13,61.56-25.86,122.7-113.11,132.94l-31.45,54.85Z" style="fill: #02894b; stroke-width: 0px;"/>
      <polygon points="980.48 811.11 825.26 811.11 856.75 756.44 1011.87 756.44 980.48 811.11" style="fill: #02894b; stroke-width: 0px;"/>
      <polygon points="1009.49 622.76 933.15 622.76 901.82 677.43 977.79 677.43 1009.49 622.76" style="fill: #02894b; stroke-width: 0px;"/>
    </g>
    <path d="M969.62,498.94h-215.42s-9.16.28-23.13,2.09c-60.2,7.83-113.62,42.68-145.66,94.24,0,0-59.39,95.6,59.86,97.71h102.08s50.9-4.59,29.56,29.35c-13.25,21.06-38.38,33.71-71.7,33.71h-167.93c-11.49,0-18.43-12.71-12.22-22.37h0s-23.55-3.49-23.55-3.49l-16.12,25.86-34.91,55.07h190.93c32.24,0,84.13.8,116.71-3.56,8.46-1.13,24.57-8.13,32.1-10.91,35.15-12.96,67.78-69.61,78.22-120.19,12.62-61.12-68.07-54.48-68.07-54.48l-119.72-.15c-35.36-.04-9.23-38.8-9.23-38.8,12.65-18.39,33.53-29.37,55.85-29.37h156.25c11.49,0,18.43,12.71,12.22,22.37l23.55,3.49,50.35-80.58Z" style="fill: #077cc1; stroke-width: 0px;"/>
    <path d="M551.74,540.8l26.75-42.24h-240.09l-26.75,42.24h-57.74l-145.37,229.5h57.74l-26.75,42.24h240.09l26.75-42.24h49.93l145.37-229.5h-49.93ZM238.71,747.11l126.23-199.28c2.77-4.37,7.59-7.02,12.76-7.02h81.04c11.91,0,19.14,13.13,12.76,23.2l-126.23,199.28c-2.77,4.37-7.59,7.02-12.76,7.02h-81.04c-11.91,0-19.14-13.13-12.76-23.2Z" style="fill: #9d2f92; stroke-width: 0px;"/>
  </g>
  <g>
    <polygon points="1277.75 575.78 1336.32 505.39 1467.65 505.39 1406.15 577.91 1277.75 575.78" style="fill: #077cc1; stroke-width: 0px;"/>
    <path d="M1436.54,798.16c-10.75-10.51-16.67-24.89-16.67-40.49,0-2.89.18-5.71.53-8.46-19.52,3.99-42.71,2.61-61.81-10.79-24.15-16.95-36.88-41-36.24-63.94l-51.78,60.81c21.82,44.34,69.48,75.09,124.76,75.09,16.34,0,32.01-2.69,46.55-7.62-1.87-1.41-3.65-2.95-5.34-4.6ZM1425.94,554.58l-57.41,65.32c20.92-4.64,45.57.17,66.71,15.01,3.51,2.46,6.69,5.21,9.55,8.17,2.29-5.78,5.58-11.11,9.73-15.62,6.79-7.38,19.11-16.19,39.24-16.19,7.31,0,14.08,1.39,20.06,3.93-18.92-30.25-50.51-52.61-87.88-60.62Z" style="fill: #077cc1; stroke-width: 0px;"/>
    <path d="M1555.11,807.32c-5.3-5.3-10.32-10.6-17.57-18.41-16.18,15.06-34.3,21.47-54.94,21.47-36.54,0-57.73-24.54-57.73-52.71,0-25.66,15.34-43.23,36.81-54.94v-.84c-9.76-12.27-15.62-25.94-15.62-39.32,0-22.87,16.45-46.3,47.69-46.3,23.43,0,41.55,15.62,41.55,39.88,0,19.8-11.43,35.42-41.28,50.2v.84c15.9,18.41,33.75,39.05,45.74,52.43,8.65-13.11,14.5-31.24,18.13-54.94h22.31c-5.02,29.57-13.11,52.99-27.05,69.45,10.04,10.6,19.8,21.2,30.96,33.19h-29.01ZM1525.55,774.97c-11.16-12.27-32.07-35.14-52.99-59.13-10.04,6.41-24.26,18.41-24.26,38.21,0,21.48,15.9,37.93,38.49,37.93,16.17,0,29.84-7.25,38.76-17.01ZM1468.37,660.34c0,13.39,6.14,23.7,14.22,33.75,18.96-10.88,31.23-20.92,31.23-36.82,0-11.43-6.41-24.26-21.75-24.26s-23.71,12.83-23.71,27.33Z" style="fill: #000; stroke-width: 0px;"/>
    <path d="M1563.56,699.68h-9.95l-.65,4.25c-3.01,19.71-7.54,35.13-13.77,46.86l-15.05-16.67-.08.09c-3.09-3.54-6.3-7.24-9.59-11.05-.44-4.18-.65-8.49-.65-12.92,0-3.28.11-6.55.32-9.79,1.46-1.02,2.85-2.04,4.18-3.08.36-.28.71-.56,1.05-.83.29-.23.57-.46.84-.68,1.05-.87,2.05-1.75,3.01-2.63.39-.36.77-.72,1.15-1.08.14-.13.27-.26.4-.39.35-.34.7-.68,1.03-1.03,1.17-1.18,2.25-2.37,3.26-3.59.16-.18.31-.36.45-.54.55-.67,1.08-1.35,1.58-2.04.35-.46.68-.93,1-1.4.36-.52.71-1.04,1.04-1.56,0-.02.02-.04.04-.07.31-.5.62-.99.9-1.49.13-.21.24-.41.35-.62.17-.29.33-.58.49-.87.11-.2.22-.41.32-.62.21-.4.41-.81.6-1.22.06-.11.12-.23.16-.34.25-.52.49-1.05.71-1.58.23-.53.44-1.06.64-1.6.02-.05.03-.1.05-.14.21-.54.4-1.1.58-1.65.04-.12.08-.23.11-.34.17-.52.32-1.04.47-1.57,0,0,0,0,0-.02.17-.6.33-1.2.47-1.81.1-.42.2-.85.28-1.28.05-.21.09-.43.13-.65.15-.78.28-1.57.39-2.37.05-.33.09-.66.13-1,.04-.3.07-.6.09-.9.04-.25.06-.5.07-.75.04-.35.07-.7.08-1.06.04-.5.07-1,.08-1.5.03-.66.04-1.32.04-1.99,0-.81-.02-1.62-.06-2.42-.04-1-.12-1.99-.23-2.96-.03-.27-.06-.55-.09-.82-.04-.31-.08-.61-.13-.92-.05-.39-.11-.77-.18-1.15-.07-.43-.15-.87-.24-1.3-.06-.32-.13-.63-.2-.95-.07-.37-.16-.74-.26-1.11-.08-.36-.18-.73-.28-1.09-.3-1.09-.64-2.16-1.01-3.21-.13-.35-.25-.69-.39-1.04-.28-.71-.57-1.41-.88-2.11,6.22-8.42,13.9-17.84,22.71-29.21,15.82-20.27,35.02-41.94,54.97-64.92,20.44-23.55,36.18-44.22,50.17-58.99l50.05,30.99-147.03,169.5c-3.51,4.05-4.34,9.46-3.67,15.23Z" style="fill: #9d2f92; stroke-width: 0px;"/>
    <path d="M1746.14,700.65c0,14.94-3.32,29.44-9.94,43.51-6.64,14.09-15.07,25.83-25.31,35.26-12.07,10.69-25.44,18.78-40.13,24.29-14.67,5.51-30.75,8.26-48.23,8.26-10.33,0-20.25-.91-29.79-2.73l-4.96-5.33c-3.05-3.28-6-6.46-8.88-9.56-6.57-7.08-12.83-13.82-19.11-20.49.04-.05.08-.1.11-.15,7.84-10.34,14-23.25,18.77-39.47,1.75,2.82,3.72,5.48,5.91,7.96,5.13,5.65,11.04,9.77,17.67,12.37,6.64,2.58,13.6,3.88,20.84,3.88s14.86-1.6,21.97-4.82c7.09-3.23,12.9-7.66,17.43-13.32,4.69-5.34,8.27-11.69,10.76-19.06,2.49-7.4,3.74-15.56,3.74-24.5,0-12.41-3.17-23.33-9.53-32.76-6.33-9.41-19.96-20.42-30.08-26.23l31.05-35.97c10.33,3.68,19.72,8.1,28.15,13.25,16.75,10.22,29.19,22.46,37.34,36.68,8.14,14.24,12.22,30.55,12.22,48.93Z" style="fill: #9d2f92; stroke-width: 0px;"/>
  </g>
  <g>
    <path d="M256.14,447.12c-9.96,0-17.94-3.86-23.93-11.57-5.18-6.71-7.76-15.05-7.76-25.05,0-11.62,3.42-20.9,10.25-27.83,5.92-6.02,13.36-9.03,22.31-9.03,8.43,0,14.91,2.17,19.43,6.49,2.8,2.64,5.18,6.07,7.13,10.3l-7.23,2.83c-1.46-3.45-3.12-6.1-4.98-7.96-3.32-3.19-8.04-4.79-14.16-4.79-7.88,0-13.98,3.06-18.31,9.18-3.78,5.31-5.66,12.24-5.66,20.8,0,9.73,2.36,17.3,7.08,22.71,4.13,4.69,9.5,7.03,16.11,7.03s12.04-2.47,16.21-7.42c3.61-4.26,5.42-9.46,5.42-15.58v-1.03h-19.43v-6.88h27.54v36.91h-5.42l-1.61-13.13c-3.12,5.24-6.67,8.95-10.64,11.13-3.45,1.92-7.57,2.88-12.35,2.88Z" style="fill: #231f20; stroke-width: 0px;"/>
    <path d="M327.29,447.12c-8.69,0-15.37-2.8-20.02-8.4-3.91-4.75-5.86-10.92-5.86-18.51,0-8.59,2.49-15.43,7.47-20.51,4.33-4.43,9.77-6.64,16.31-6.64,7.45,0,13.18,2.62,17.19,7.86,3.48,4.56,5.22,10.6,5.22,18.12v2.69h-37.6c.1,3.65.58,6.63,1.44,8.96.86,2.33,2.22,4.34,4.08,6.03,2.6,2.34,6.46,3.52,11.57,3.52,3.19,0,5.86-.55,8.01-1.66,2.15-1.11,4.15-2.95,6.01-5.52l6.1,4.88c-4.26,6.12-10.91,9.18-19.92,9.18ZM310.3,415.04h28.81c-.59-5.7-2.08-9.7-4.49-12.01-2.15-2.05-5.26-3.08-9.33-3.08-8.11,0-13.1,5.03-14.99,15.09Z" style="fill: #231f20; stroke-width: 0px;"/>
    <path d="M360.69,393.94h8.3v8.01c3.22-5.92,8.53-8.89,15.92-8.89,5.96,0,10.42,2.02,13.38,6.05,2.6,3.52,3.91,8.42,3.91,14.7v32.42h-8.3v-33.01c0-4.79-1.01-8.2-3.03-10.25-1.79-1.82-4.48-2.73-8.06-2.73-4.49,0-8.01,1.43-10.55,4.3-2.18,2.51-3.27,5.75-3.27,9.72v31.98h-8.3v-52.29Z" style="fill: #231f20; stroke-width: 0px;"/>
    <path d="M443.69,447.12c-8.69,0-15.37-2.8-20.02-8.4-3.91-4.75-5.86-10.92-5.86-18.51,0-8.59,2.49-15.43,7.47-20.51,4.33-4.43,9.77-6.64,16.31-6.64,7.45,0,13.18,2.62,17.19,7.86,3.48,4.56,5.22,10.6,5.22,18.12v2.69h-37.6c.1,3.65.58,6.63,1.44,8.96.86,2.33,2.22,4.34,4.08,6.03,2.6,2.34,6.46,3.52,11.57,3.52,3.19,0,5.86-.55,8.01-1.66,2.15-1.11,4.15-2.95,6.01-5.52l6.1,4.88c-4.26,6.12-10.91,9.18-19.92,9.18ZM426.7,415.04h28.81c-.59-5.7-2.08-9.7-4.49-12.01-2.15-2.05-5.26-3.08-9.33-3.08-8.11,0-13.1,5.03-14.99,15.09Z" style="fill: #231f20; stroke-width: 0px;"/>
    <path d="M477.09,393.94h8.3v8.4c3.35-6.18,8.02-9.28,14.01-9.28,3.06,0,5.89.7,8.5,2.1l-3.42,6.98c-2.02-1.04-4.05-1.56-6.1-1.56-4.33,0-7.65,1.73-9.96,5.18-2.02,2.96-3.03,6.88-3.03,11.77v28.71h-8.3v-52.29Z" style="fill: #231f20; stroke-width: 0px;"/>
    <path d="M559.61,446.53c-.75.06-1.71.1-2.88.1-5.63,0-9.25-2.49-10.84-7.47-4.46,5.31-9.81,7.96-16.06,7.96-5.21,0-9.36-1.53-12.45-4.59-2.7-2.64-4.05-5.91-4.05-9.81,0-4.1,1.4-7.54,4.2-10.3,2.44-2.41,5.84-4.2,10.21-5.37,4.04-1.07,9.93-1.74,17.68-2v-3.27c0-4.33-.94-7.44-2.83-9.33-1.66-1.66-4.15-2.49-7.47-2.49-2.73,0-5.24.5-7.52,1.49-2.28.99-4.77,2.66-7.47,5l-4.88-5.42c3.12-2.83,6.23-4.87,9.33-6.1,3.09-1.24,6.61-1.86,10.55-1.86,6.41,0,11.21,1.82,14.4,5.47,2.8,3.19,4.2,7.6,4.2,13.23v23.29c0,1.86.42,3.13,1.27,3.83.85.7,2.39,1.08,4.64,1.15v6.49ZM545.4,420.95c-8.95.33-15.27,1.48-18.95,3.47-3.22,1.79-4.83,4.43-4.83,7.91,0,2.6.83,4.61,2.49,6.01,1.66,1.4,4.02,2.1,7.08,2.1,4.46,0,8.02-1.22,10.69-3.66,2.34-2.12,3.52-4.72,3.52-7.81v-8.01Z" style="fill: #231f20; stroke-width: 0px;"/>
    <path d="M585.69,447.02c-8.46,0-12.7-4.59-12.7-13.77v-62.3h8.3v62.99c0,4.13,1.9,6.2,5.71,6.2,1.99,0,3.71-.57,5.18-1.71l2.73,6.2c-2.67,1.6-5.75,2.39-9.23,2.39Z" style="fill: #231f20; stroke-width: 0px;"/>
    <path d="M660.83,447.12c-14.23,0-23.23-5.35-27-16.06l7.42-3.03c1.46,4.69,4.02,7.98,7.67,9.86,2.96,1.56,6.93,2.34,11.91,2.34,5.6,0,9.93-1.38,12.99-4.15,2.67-2.38,4-5.52,4-9.42,0-3.58-1.17-6.38-3.52-8.4-1.37-1.2-3.08-2.19-5.13-2.95-2.05-.76-5.63-1.78-10.74-3.05-7.49-1.82-12.86-3.96-16.11-6.4-4-2.96-6.01-7.29-6.01-12.99,0-6.25,2.29-11.08,6.88-14.5,4-2.99,9.24-4.49,15.72-4.49s11.8,1.06,15.58,3.17c3.61,2.02,6.43,5.22,8.45,9.62l-6.84,3.47c-1.76-3.91-4.12-6.51-7.08-7.81-2.28-1.04-5.62-1.56-10.01-1.56-4.88,0-8.61,1.16-11.18,3.47-2.28,2.02-3.42,4.69-3.42,8.01,0,3.87,1.63,6.77,4.88,8.69,2.31,1.33,6.45,2.67,12.4,4,8.24,1.82,14.11,4.12,17.63,6.88,4.39,3.61,6.59,8.48,6.59,14.6,0,6.74-2.57,12-7.71,15.77-4.46,3.29-10.25,4.93-17.38,4.93Z" style="fill: #231f20; stroke-width: 0px;"/>
    <path d="M725.19,447.12c-8.69,0-15.37-2.8-20.02-8.4-3.91-4.75-5.86-10.92-5.86-18.51,0-8.59,2.49-15.43,7.47-20.51,4.33-4.43,9.77-6.64,16.31-6.64,7.45,0,13.18,2.62,17.19,7.86,3.48,4.56,5.22,10.6,5.22,18.12v2.69h-37.6c.1,3.65.58,6.63,1.44,8.96.86,2.33,2.22,4.34,4.08,6.03,2.6,2.34,6.46,3.52,11.57,3.52,3.19,0,5.86-.55,8.01-1.66,2.15-1.11,4.15-2.95,6.01-5.52l6.1,4.88c-4.26,6.12-10.91,9.18-19.92,9.18ZM708.2,415.04h28.81c-.59-5.7-2.08-9.7-4.49-12.01-2.15-2.05-5.26-3.08-9.33-3.08-8.11,0-13.1,5.03-14.99,15.09Z" style="fill: #231f20; stroke-width: 0px;"/>
    <path d="M758.59,393.94h8.3v8.4c3.35-6.18,8.02-9.28,14.01-9.28,3.06,0,5.89.7,8.5,2.1l-3.42,6.98c-2.02-1.04-4.05-1.56-6.1-1.56-4.33,0-7.65,1.73-9.96,5.18-2.02,2.96-3.03,6.88-3.03,11.77v28.71h-8.3v-52.29Z" style="fill: #231f20; stroke-width: 0px;"/>
    <path d="M793.64,393.94h8.98l14.01,43.9,13.72-43.9h8.59l-17.63,52.29h-9.77l-17.92-52.29Z" style="fill: #231f20; stroke-width: 0px;"/>
    <path d="M855.12,372.17c1.5,0,2.78.54,3.86,1.61s1.61,2.36,1.61,3.86-.54,2.83-1.61,3.91-2.36,1.61-3.86,1.61-2.83-.54-3.91-1.61-1.61-2.38-1.61-3.91.54-2.78,1.61-3.86,2.38-1.61,3.91-1.61ZM851.12,393.94h8.3v52.29h-8.3v-52.29Z" style="fill: #231f20; stroke-width: 0px;"/>
    <path d="M900.29,447.12c-7.81,0-14.01-2.83-18.6-8.5-4-4.92-6.01-11.08-6.01-18.51,0-8.66,2.51-15.49,7.52-20.51,4.36-4.36,9.9-6.54,16.6-6.54,8.33,0,14.89,3.47,19.68,10.4l-6.88,4.3c-1.99-2.96-3.9-5-5.74-6.13-1.84-1.12-4.16-1.68-6.96-1.68-5.27,0-9.28,2.04-12.01,6.1-2.41,3.52-3.61,8.29-3.61,14.31,0,6.8,1.58,11.91,4.74,15.33,2.77,3.03,6.59,4.54,11.47,4.54,5.99,0,10.6-2.6,13.82-7.81l6.49,3.71c-2.6,4.17-5.76,7.13-9.47,8.89-3.06,1.4-6.74,2.1-11.04,2.1Z" style="fill: #231f20; stroke-width: 0px;"/>
    <path d="M953.75,447.12c-8.69,0-15.37-2.8-20.02-8.4-3.91-4.75-5.86-10.92-5.86-18.51,0-8.59,2.49-15.43,7.47-20.51,4.33-4.43,9.77-6.64,16.31-6.64,7.45,0,13.18,2.62,17.19,7.86,3.48,4.56,5.22,10.6,5.22,18.12v2.69h-37.6c.1,3.65.58,6.63,1.44,8.96.86,2.33,2.22,4.34,4.08,6.03,2.6,2.34,6.46,3.52,11.57,3.52,3.19,0,5.86-.55,8.01-1.66,2.15-1.11,4.15-2.95,6.01-5.52l6.1,4.88c-4.26,6.12-10.91,9.18-19.92,9.18ZM936.76,415.04h28.81c-.59-5.7-2.08-9.7-4.49-12.01-2.15-2.05-5.26-3.08-9.33-3.08-8.11,0-13.1,5.03-14.99,15.09Z" style="fill: #231f20; stroke-width: 0px;"/>
  </g>
</svg>