<?xml version="1.0" encoding="utf-8"?>
<!-- Generator: Adobe Illustrator 26.4.1, SVG Export Plug-In . SVG Version: 6.00 Build 0)  -->
<svg version="1.1" id="Icon_x5F_contour" xmlns="http://www.w3.org/2000/svg" xmlns:xlink="http://www.w3.org/1999/xlink" x="0px"
	 y="0px" viewBox="0 0 192 192" style="enable-background:new 0 0 192 192;" xml:space="preserve">
<path d="M34.25,112.83997c-2.66998,0.80005-5.10999,2.15002-7.19,3.92004C25.07001,110.17999,24,103.20996,24,96
	c0-7.21002,1.07001-14.17999,3.06-20.76001c2.08002,1.77002,4.52002,3.12,7.19,3.91998C32.78003,84.52997,32,90.16998,32,96
	C32,101.82996,32.78003,107.46997,34.25,112.83997z M55.06,145.14001c-1.78998,2.06-4.02002,3.75995-6.52002,4.94995
	c7.85004,6.89001,17.20001,12.11005,27.5,15.09003C76.01001,164.78998,76,164.39996,76,164
	c0-2.40002,0.41998-4.70001,1.20001-6.83002C69,154.65997,61.48999,150.51996,55.06,145.14001z M136.95001,145.13
	c-6.42999,5.38-13.94,9.51996-22.14001,12.04999c0.77002,2.13,1.19,4.41998,1.19,6.82001c0,0.39996-0.01001,0.78998-0.03998,1.17999
	c10.29999-2.97998,19.65997-8.21002,27.50995-15.12C140.96997,148.88,138.76001,147.20001,136.95001,145.13z M55.06,46.85999
	c6.42999-5.38,13.94-9.52002,22.14001-12.03003C76.41998,32.70001,76,30.39996,76,28c0-0.40002,0.01001-0.79004,0.03998-1.17999
	c-10.29999,2.97998-19.64996,8.19995-27.5,15.08997C51.03998,43.09998,53.27002,44.79999,55.06,46.85999z M136.95001,46.87
	c1.81-2.07001,4.01996-3.75,6.51996-4.92999c-7.84998-6.91003-17.20996-12.14001-27.50995-15.12
	C115.98999,27.20996,116,27.59998,116,28c0,2.39996-0.41998,4.69-1.19,6.82001
	C123.01001,37.34998,130.52002,41.48999,136.95001,46.87z M164.9328,75.22864c-2.07953,1.76874-4.5199,3.12036-7.19922,3.92407
	C159.20129,84.52435,160,90.16931,160,96s-0.79871,11.47565-2.26642,16.84729c2.67932,0.80371,5.11969,2.15533,7.19922,3.92407
	C166.91962,110.19055,168,103.22021,168,96S166.91962,81.80945,164.9328,75.22864z M164,132c0,6.62-5.38,12-12,12s-12-5.38-12-12
	c0-0.95001,0.10999-1.87,0.32001-2.76001l-30-19.28998c-2.75,2.81995-6.32001,4.82996-10.32001,5.64996v28.79999V152.69
	c3.09003,1.08997,5.59998,3.40997,6.94,6.37c0.67999,1.51001,1.06,3.17999,1.06,4.94c0,1.06-0.14001,2.07996-0.40002,3.06
	C106.25,172.20001,101.56,176,96,176s-10.25-3.79999-11.59998-8.94C84.14001,166.07996,84,165.06,84,164
	c0-1.76001,0.38-3.42999,1.06-4.94c1.34003-2.96002,3.84998-5.28003,6.94-6.37v-8.29004v-28.79999
	c-4-0.82001-7.57001-2.83002-10.32001-5.64996l-23.03998,14.81l-6.96002,4.47998C51.89001,130.13,52,131.04999,52,132
	c0,2.90997-1.03003,5.57001-2.75,7.64996c-1.77002,2.12-4.23999,3.63-7.04999,4.15002C41.47998,143.92999,40.75,144,40,144
	c-6.62,0-12-5.38-12-12c0-2.54999,0.79999-4.92004,2.16998-6.85999c1.58002-2.28003,3.94-3.98004,6.67999-4.72003
	C37.85999,120.14001,38.90997,120,40,120c2.77002,0,5.32001,0.94,7.34998,2.52997l6.97003-4.47998l23.03998-14.81
	C76.47998,100.98999,76,98.54999,76,96s0.47998-4.98999,1.35999-7.23999l-23.03998-14.81l-6.97003-4.48004
	C45.32001,71.06,42.77002,72,40,72c-1.09003,0-2.14001-0.14001-3.15002-0.42004c-2.73999-0.73999-5.09998-2.43994-6.67999-4.71997
	C28.79999,64.91998,28,62.54999,28,60c0-6.62,5.38-12,12-12c0.75,0,1.47998,0.07001,2.20001,0.20001
	c2.81,0.51996,5.27997,2.02997,7.04999,4.14996C50.96997,54.42999,52,57.08997,52,60c0,0.95001-0.10999,1.87-0.32001,2.76001
	l6.96002,4.47998l23.03998,14.81C84.42999,79.22998,88,77.21997,92,76.39996V47.59998V39.31
	c-3.09003-1.09003-5.59998-3.41003-6.94-6.37C84.38,31.42999,84,29.76001,84,28c0-1.06,0.14001-2.08002,0.40002-3.06
	C85.75,19.79999,90.44,16,96,16s10.25,3.79999,11.59998,8.94C107.85999,25.91998,108,26.94,108,28c0,1.76001-0.38,3.42999-1.06,4.94
	c-1.34003,2.95996-3.84998,5.27997-6.94,6.37v8.28998v28.79999c4,0.82001,7.57001,2.83002,10.32001,5.65002l30-19.28998
	C140.10999,61.87,140,60.95001,140,60c0-6.62,5.38-12,12-12s12,5.38,12,12s-5.38,12-12,12c-2.77002,0-5.32001-0.94-7.34998-2.53003
	l-30.01001,19.29004c0.88,2.25,1.35999,4.69,1.35999,7.23999s-0.47998,4.98999-1.35999,7.23999l30.01001,19.28998
	C146.67999,120.94,149.22998,120,152,120C158.62,120,164,125.38,164,132z M149.71997,56.71997C148.67999,57.44,148,58.64001,148,60
	c0,2.20996,1.78998,4,4,4c0.69,0,1.34003-0.17999,1.90002-0.48004c0.08997-0.04999,0.17999-0.09998,0.25995-0.15997
	C155.27002,62.64996,156,61.40997,156,60c0-2.21002-1.78998-4-4-4c-0.78998,0-1.53003,0.22998-2.15997,0.64001
	C149.79999,56.65997,149.76001,56.69,149.71997,56.71997z M44,60c0-0.35999-0.04999-0.72003-0.15002-1.04999
	c-0.23999-0.92004-0.81-1.71002-1.56995-2.23004c-0.04004-0.02997-0.08002-0.06-0.12006-0.07996
	C41.53003,56.22998,40.78998,56,40,56c-2.21002,0-4,1.78998-4,4c0,1.40997,0.72998,2.64996,1.84003,3.35999
	c0.07996,0.06,0.16998,0.10999,0.25995,0.15997C38.65997,63.82001,39.31,64,40,64c0.21002,0,0.41998-0.02002,0.62-0.04999
	C42.53998,63.64996,44,62,44,60z M40,136c0.78998,0,1.53003-0.23004,2.15997-0.64001
	c0.04004-0.02002,0.08002-0.04999,0.12006-0.08002c0.75995-0.51996,1.32996-1.31,1.56995-2.22998
	C43.95001,132.71997,44,132.35999,44,132c0-2-1.46002-3.65002-3.38-3.95001C40.41998,128.01996,40.21002,128,40,128
	c-0.69,0-1.34003,0.17999-1.90002,0.47998c-0.08997,0.04999-0.17999,0.09998-0.25995,0.16003
	C36.72998,129.34998,36,130.58997,36,132C36,134.20996,37.78998,136,40,136z M96,32c2.21002,0,4-1.79004,4-4
	c0-2.21002-1.78998-4-4-4s-4,1.78998-4,4C92,30.20996,93.78998,32,96,32z M96,160c-2.21002,0-4,1.78998-4,4c0,2.20996,1.78998,4,4,4
	s4-1.79004,4-4C100,161.78998,98.21002,160,96,160z M103.34998,105.47998c2.13-1.65002,3.69-4.01001,4.33002-6.71997
	C107.89001,97.87,108,96.95001,108,96s-0.10999-1.87-0.32001-2.76001c-0.64001-2.71002-2.20001-5.07001-4.33002-6.72003
	c-1-0.77997-2.13-1.39996-3.34998-1.82996C98.75,84.23999,97.40002,84,96,84s-2.75,0.23999-4,0.69
	c-1.21997,0.42999-2.34998,1.04999-3.34998,1.82996c-2.13,1.65002-3.69,4.01001-4.33002,6.72003C84.10999,94.13,84,95.04999,84,96
	s0.10999,1.87,0.32001,2.76001c0.64001,2.70996,2.20001,5.06995,4.33002,6.71997c1,0.78003,2.13,1.40002,3.34998,1.83002
	c1.25,0.45001,2.59998,0.69,4,0.69s2.75-0.23999,4-0.69C101.21997,106.88,102.34998,106.26001,103.34998,105.47998z
	 M151.59003,135.97998C151.72998,135.98999,151.85999,136,152,136c2.21002,0,4-1.79004,4-4
	c0-1.41003-0.72998-2.65002-1.84003-3.35999c-0.07996-0.06006-0.16998-0.11005-0.25995-0.16003
	C153.34003,128.17999,152.69,128,152,128c-0.10999,0-0.21997,0-0.33002,0.01996C149.60999,128.17999,148,129.89996,148,132
	c0,0.35999,0.04999,0.70001,0.15002,1.02997c0.06,0.21002,0.13,0.42004,0.21997,0.62c0.13,0.29004,0.31,0.57001,0.5,0.82001
	c0.09003,0.13,0.19,0.25,0.32001,0.35999c0.12,0.11005,0.22998,0.22003,0.35999,0.32001c0.06,0.05005,0.10999,0.10004,0.16998,0.13
	c0.03003,0.03003,0.06006,0.04999,0.09003,0.06c0.01001,0.01001,0.02002,0.02002,0.03003,0.02002
	c0.25995,0.17999,0.54999,0.31,0.84998,0.40997c0.09003,0.04004,0.19,0.07001,0.28998,0.09003
	c0.01001,0.01001,0.03003,0.02002,0.05005,0.02002c0.08997,0.01996,0.17999,0.03998,0.26996,0.04999
	C151.39001,135.95996,151.48999,135.96997,151.59003,135.97998z"/>
<g>
</g>
<g>
</g>
<g>
</g>
<g>
</g>
<g>
</g>
<g>
</g>
<g>
</g>
<g>
</g>
<g>
</g>
<g>
</g>
<g>
</g>
<g>
</g>
<g>
</g>
<g>
</g>
<g>
</g>
</svg>
