<?xml version="1.0" encoding="utf-8"?>
<!-- Generator: Adobe Illustrator 23.0.1, SVG Export Plug-In . SVG Version: 6.00 Build 0)  -->
<svg version="1.1" id="Icon_x5F_contour" xmlns="http://www.w3.org/2000/svg" xmlns:xlink="http://www.w3.org/1999/xlink" x="0px"
	 y="0px" viewBox="0 0 192 192" enable-background="new 0 0 192 192" xml:space="preserve">
<path d="M175.4,38.3l-16.2-5.4l-5.4-16.2l-26.3,26.3l4,12L93.2,93.2c-1.6,1.6-1.6,4.1,0,5.7C94,99.6,95,100,96,100s2-0.4,2.8-1.2
	l38.3-38.3l12,4L175.4,38.3z M139.2,52.8l-2.6-7.8l13.7-13.7l2.6,7.8l7.8,2.6l-13.7,13.7L139.2,52.8z M115.8,93.2
	c0.1,0.9,0.2,1.9,0.2,2.8c0,11-9,20-20,20s-20-9-20-20s9-20,20-20c1,0,1.9,0.1,2.8,0.2L87.5,87.5c-1.7,1.7-2.8,3.8-3.3,6
	c0,0,0,0,0,0c-0.1,0.3-0.1,0.7-0.2,1c0,0.1,0,0.1,0,0.2c0,0.4-0.1,0.8-0.1,1.2c0,0.4,0,0.8,0.1,1.2c0,0.1,0,0.1,0,0.2
	c0,0.3,0.1,0.7,0.2,1c0,0,0,0,0,0c0.5,2.3,1.6,4.4,3.3,6c1.7,1.7,3.8,2.8,6,3.3c0,0,0,0,0,0c0.3,0.1,0.7,0.1,1,0.2
	c0.1,0,0.1,0,0.2,0c0.4,0,0.8,0.1,1.2,0.1c0.4,0,0.8,0,1.2-0.1c0.1,0,0.1,0,0.2,0c2.7-0.3,5.2-1.5,7.1-3.4L115.8,93.2z M131.5,77.5
	C134.4,83,136,89.3,136,96c0,22.1-17.9,40-40,40s-40-17.9-40-40s17.9-40,40-40c6.7,0,13,1.6,18.5,4.5l-6,6
	c-3.8-1.6-8.1-2.5-12.5-2.5c-17.6,0-32,14.4-32,32s14.4,32,32,32s32-14.4,32-32c0-4.4-0.9-8.7-2.5-12.5L131.5,77.5z M166.6,58.4
	c6,11.2,9.4,24,9.4,37.6c0,44.1-35.9,80-80,80s-80-35.9-80-80s35.9-80,80-80c13.6,0,26.4,3.4,37.6,9.4l-5.9,5.9
	C118.1,26.7,107.4,24,96,24c-39.7,0-72,32.3-72,72s32.3,72,72,72s72-32.3,72-72c0-11.4-2.7-22.1-7.4-31.7L166.6,58.4z M156,96
	c0,33.1-26.9,60-60,60s-60-26.9-60-60s26.9-60,60-60c7.8,0,15.3,1.5,22.1,4.2l3.5,10.5C114,46.5,105.3,44,96,44
	c-28.7,0-52,23.3-52,52s23.3,52,52,52s52-23.3,52-52c0-9.3-2.5-18-6.8-25.6l10.5,3.5C154.5,80.7,156,88.2,156,96z"/>
</svg>
